<?xml version="1.0" encoding="UTF-8"?>
<svg version="1.1" xmlns="http://www.w3.org/2000/svg" width="1150" height="1150">
<path d="M0 0 C0.66 0 1.32 0 2 0 C1.48331231 22.65675516 -1.50450345 45.25309459 -8 67 C-8.25700684 67.86415527 -8.51401367 68.72831055 -8.77880859 69.61865234 C-16.51543285 94.93975984 -28.91527519 118.66665839 -43 141 C-43.648479 142.02988037 -43.648479 142.02988037 -44.31005859 143.08056641 C-54.34672517 158.86496362 -65.57797181 174.01510922 -78 188 C-78.62390625 188.71003174 -79.2478125 189.42006348 -79.890625 190.15161133 C-85.63815341 196.62862373 -91.63445246 202.82068043 -97.75585938 208.94116211 C-99.3714068 210.55890192 -100.97875034 212.18450636 -102.5859375 213.81054688 C-109.06534957 220.32504333 -115.7635936 226.3186387 -123 232 C-124.18052837 232.95338681 -125.36034604 233.90765519 -126.5390625 234.86328125 C-159.56112326 261.07192947 -196.72091471 281.76121304 -236 297 C-229.32078467 296.57399432 -223.19643498 295.85010866 -216.875 293.625 C-215.74529785 293.23417236 -215.74529785 293.23417236 -214.59277344 292.83544922 C-168.46001917 276.37271524 -122.25952924 249.20034043 -86.2265625 216.04296875 C-84.18572074 214.17040692 -82.10536303 212.36170466 -80 210.5625 C-73.21370188 204.63991255 -66.87111103 198.2130209 -61.0234375 191.36328125 C-59.40053073 189.46780134 -57.7587448 187.59572537 -56.1015625 185.73046875 C-25.27473117 150.88335542 -2.46193983 110.57962145 13.00830078 66.78857422 C14.29356099 63.17453135 15.63939167 59.58626796 17 56 C21.74980837 59.6033029 22.74370306 64.42624538 24 70 C24.37772193 73.27736094 24.42165997 76.50407954 24.3984375 79.80078125 C24.4047821 81.15993904 24.4047821 81.15993904 24.41125488 82.54655457 C24.41761687 85.46890314 24.39884607 88.39025134 24.375 91.3125 C24.37034729 92.31587402 24.36569458 93.31924805 24.36090088 94.35302734 C24.05753297 150.15494321 11.66251827 209.18157235 -22 255 C-22.43248047 255.59796387 -22.86496094 256.19592773 -23.31054688 256.81201172 C-33.44710297 270.80365722 -44.38788519 283.54779025 -56.5625 295.8125 C-57.42480225 296.68414795 -58.28710449 297.5557959 -59.17553711 298.45385742 C-65.14043597 304.38938645 -71.38956469 309.79638959 -78 315 C-78.6906958 315.54470947 -79.3813916 316.08941895 -80.09301758 316.65063477 C-141.96988531 364.82877403 -215.70605135 383.14664236 -293.27929688 373.50488281 C-345.42436776 366.42902936 -391.73157911 347.99097171 -430.7421875 312.0703125 C-433.56981715 309.4775033 -436.48101489 306.98946688 -439.40625 304.5078125 C-442.18386029 301.87997531 -442.97588912 300.23773845 -443.36328125 296.41796875 C-443.21784611 291.22841723 -441.30669683 286.98523852 -439.1875 282.3125 C-438.78587646 281.4054834 -438.38425293 280.4984668 -437.97045898 279.56396484 C-428.60208733 258.74655695 -417.36562617 239.72824681 -403 222 C-402.55462891 221.45021484 -402.10925781 220.90042969 -401.65039062 220.33398438 C-390.43766319 206.62251091 -378.06475028 193.79862539 -364 183 C-362.99839844 182.20464844 -361.99679687 181.40929687 -360.96484375 180.58984375 C-347.15645571 169.67843898 -332.3665297 160.54500994 -317 152 C-316.20416504 151.55543457 -315.40833008 151.11086914 -314.58837891 150.65283203 C-271.43702374 126.74972353 -223.55587757 112.31065711 -176.91363525 96.95953369 C-80.28851876 65.55853783 -80.28851876 65.55853783 -2.3125 2.53125 C-1.56874537 1.66353626 -0.8081145 0.8081145 0 0 Z " fill="#38B449" transform="translate(825,342)"/>
<path d="M0 0 C4.74980837 3.6033029 5.74370306 8.42624538 7 14 C7.37772193 17.27736094 7.42165997 20.50407954 7.3984375 23.80078125 C7.4047821 25.15993904 7.4047821 25.15993904 7.41125488 26.54655457 C7.41761687 29.46890314 7.39884607 32.39025134 7.375 35.3125 C7.37034729 36.31587402 7.36569458 37.31924805 7.36090088 38.35302734 C7.05753297 94.15494321 -5.33748173 153.18157235 -39 199 C-39.43248047 199.59796387 -39.86496094 200.19592773 -40.31054688 200.81201172 C-50.44710297 214.80365722 -61.38788519 227.54779025 -73.5625 239.8125 C-74.42480225 240.68414795 -75.28710449 241.5557959 -76.17553711 242.45385742 C-82.14043597 248.38938645 -88.38956469 253.79638959 -95 259 C-95.6906958 259.54470947 -96.3813916 260.08941895 -97.09301758 260.65063477 C-158.96988531 308.82877403 -232.70605135 327.14664236 -310.27929688 317.50488281 C-362.36827413 310.43664102 -408.81304311 292.0320395 -447.73828125 256.06640625 C-450.57472994 253.47490131 -453.52587334 251.03223601 -456.50390625 248.60546875 C-458.21817322 246.76587678 -458.61122438 245.45514466 -459 243 C-453.94304195 244.04626718 -449.0569229 245.28211689 -444.125 246.8125 C-386.33853061 263.34054034 -323.11092649 258.89792149 -265.625 243.3125 C-261.63404748 242.25057989 -257.78538453 241.74796411 -253.68676758 241.39160156 C-201.45396274 236.78006657 -140.66547584 194.49408608 -103.2265625 160.04296875 C-101.18572074 158.17040692 -99.10536303 156.36170466 -97 154.5625 C-90.21370188 148.63991255 -83.87111103 142.2130209 -78.0234375 135.36328125 C-76.40053073 133.46780134 -74.7587448 131.59572537 -73.1015625 129.73046875 C-42.27473117 94.88335542 -19.46193983 54.57962145 -3.99169922 10.78857422 C-2.70643901 7.17453135 -1.36060833 3.58626796 0 0 Z " fill="#0B9444" transform="translate(842,398)"/>
<path d="M0 0 C36.90935359 -1.00582362 71.10886301 13.39252755 97.984375 38.16015625 C98.80421875 38.8975 99.6240625 39.63484375 100.46875 40.39453125 C113.59947038 52.78024622 124.60091215 69.89411586 129.984375 87.16015625 C129.55859375 89.89819336 129.55859375 89.89819336 128.984375 92.16015625 C122.90234375 94.1875 122.90234375 94.1875 120.9017334 94.85432434 C117.06630909 96.13273493 113.23096828 97.41139528 109.39575195 98.69042969 C100.72140864 101.58298645 92.04617816 104.47283515 83.36894226 107.35670471 C78.90604466 108.84014182 74.44356155 110.32482366 69.98110962 111.80960083 C67.80972633 112.53173991 65.63816242 113.25333619 63.46640015 113.97433472 C60.35080514 115.00875782 57.23586838 116.04514081 54.12109375 117.08203125 C53.11777512 117.41497696 52.11445648 117.74792267 51.08073425 118.09095764 C45.88970935 119.82208493 40.72112268 121.6006523 35.57275391 123.45507812 C34.53294876 123.82707336 33.49314362 124.1990686 32.42182922 124.58233643 C30.45136003 125.2904054 28.48412571 126.00756964 26.5209198 126.73553467 C20.66804008 128.83473109 15.37772204 130.72233736 9.421875 127.98046875 C8.6175 127.42101562 7.813125 126.8615625 6.984375 126.28515625 C6.03304687 125.64191406 5.08171875 124.99867188 4.1015625 124.3359375 C3.07289063 123.61792969 2.04421875 122.89992188 0.984375 122.16015625 C-32.52981733 99.05491181 -68.38619718 84.03834737 -107.93359375 74.703125 C-110.015625 74.16015625 -110.015625 74.16015625 -112.015625 73.16015625 C-111.68330452 66.75467905 -109.45161958 63.29944943 -105.515625 58.34765625 C-104.97679687 57.64987061 -104.43796875 56.95208496 -103.8828125 56.2331543 C-100.10390157 51.39142467 -96.15527978 46.75414421 -91.953125 42.2734375 C-89.95252858 40.1506041 -89.95252858 40.1506041 -88.0859375 37.6640625 C-69.44633472 15.12069385 -36.61781628 3.53847896 -8.453125 0.47265625 C-5.63664052 0.27912588 -2.81912877 0.14972057 0 0 Z " fill="#FECB61" transform="translate(568.015625,313.83984375)"/>
<path d="M0 0 C0.71332489 -0.00067474 1.42664978 -0.00134949 2.16159058 -0.00204468 C60.43977823 0.08447546 121.78874701 19.6801355 168.375 55.25 C168.705 55.91 169.035 56.57 169.375 57.25 C168.29307373 57.68755615 167.21114746 58.1251123 166.09643555 58.57592773 C161.98069761 60.24218446 157.8680178 61.915885 153.75610352 63.59155273 C151.99517708 64.3080214 150.23348799 65.02261922 148.47094727 65.73510742 C145.89903156 66.77519337 143.32966393 67.82124436 140.76171875 68.87109375 C139.90714081 69.21989594 139.05256287 69.56869812 138.17208862 69.92807007 C133.72969459 71.76796756 129.36791755 73.70514724 125.05322266 75.82861328 C124.19678665 76.24933609 123.34035065 76.6700589 122.45796204 77.10353088 C120.83311135 77.91183712 119.21520239 78.73430659 117.60588074 79.57310486 C113.11909223 81.81413564 110.37600301 82.84831808 105.375 81.25 C103.01098633 80.26953125 103.01098633 80.26953125 100.70703125 79.0625 C99.82789063 78.61535645 98.94875 78.16821289 98.04296875 77.70751953 C97.10066406 77.22653809 96.15835938 76.74555664 95.1875 76.25 C39.09010555 48.62600921 -22.14303368 49.01775113 -80.89404297 67.74682617 C-81.97572754 68.08560791 -83.05741211 68.42438965 -84.171875 68.7734375 C-85.12932617 69.08200684 -86.08677734 69.39057617 -87.07324219 69.70849609 C-89.77589536 70.28202123 -91.12886991 70.42838653 -93.625 69.25 C-95.9798008 66.05024401 -95.87013173 62.98804463 -95.85546875 59.11328125 C-95.85442139 57.90349609 -95.85337402 56.69371094 -95.85229492 55.44726562 C-95.8391626 54.16529297 -95.82603027 52.88332031 -95.8125 51.5625 C-95.80387939 50.25861328 -95.79525879 48.95472656 -95.78637695 47.61132812 C-95.52761016 19.61588708 -95.52761016 19.61588708 -91.625 14.25 C-84.28956811 10.09330914 -75.05060118 8.82602125 -66.875 7.1875 C-65.61236328 6.93073486 -64.34972656 6.67396973 -63.04882812 6.40942383 C-42.18548683 2.2722285 -21.27655888 0.0183722 0 0 Z " fill="#60CDF6" transform="translate(396.625,398.75)"/>
<path d="M0 0 C0.72817932 -0.00535767 1.45635864 -0.01071533 2.206604 -0.01623535 C15.85044011 -0.09253325 29.43804604 0.59565508 42.5 4.875 C43.60794922 5.21917969 43.60794922 5.21917969 44.73828125 5.5703125 C46.49598555 6.11816839 48.2486638 6.68211623 50 7.25 C48.25594152 16.9588601 45.61326237 26.39838025 43.01953125 35.90625 C42.52319744 37.73531195 42.02716561 39.56445587 41.53141785 41.39367676 C40.22676916 46.20454774 38.91821608 51.01434794 37.60876465 55.82391357 C36.30141912 60.62810273 34.99745638 65.43320946 33.69335938 70.23828125 C32.18011601 75.81327202 30.6666164 81.38819222 29.15139771 86.96264648 C25.4123848 100.71924138 21.69397196 114.48123256 18 128.25 C15.07347958 129.0370293 12.92563432 129.29792574 9.91015625 128.91015625 C9.1325293 128.81645752 8.35490234 128.72275879 7.55371094 128.6262207 C6.73161133 128.52269287 5.90951172 128.41916504 5.0625 128.3125 C-7.76063913 126.84121096 -20.16322473 127.25572695 -33 128.25 C-36.35325937 120.3017433 -39.57162709 112.31329519 -42.66796875 104.26171875 C-43.10098801 103.13953949 -43.53400726 102.01736023 -43.98014832 100.86117554 C-45.3843469 97.22062133 -46.78609079 93.57912878 -48.1875 89.9375 C-48.6716766 88.68038818 -49.15590952 87.42329806 -49.64019775 86.16622925 C-52.1181377 79.73420315 -54.5944234 73.30154347 -57.06884766 66.86816406 C-59.42067515 60.75355476 -61.77684728 54.6406289 -64.1342926 48.52818298 C-65.82049036 44.15408719 -67.50370949 39.77885028 -69.1859436 35.40322876 C-69.97715011 33.34663607 -70.76944356 31.2904612 -71.56283569 29.23471069 C-72.65703494 26.39856408 -73.74704945 23.56084541 -74.8359375 20.72265625 C-75.15982956 19.8858432 -75.48372162 19.04903015 -75.81742859 18.18685913 C-78 12.47844395 -78 12.47844395 -78 10.25 C-52.25965103 2.81653517 -26.7288765 0.10951834 0 0 Z " fill="#F7941E" transform="translate(582,173.75)"/>
<path d="M0 0 C2.53491159 3.1440654 4.28812681 6.38108172 6.046875 10.01171875 C6.3345575 10.60386169 6.62223999 11.19600464 6.91864014 11.80609131 C7.8674689 13.76416968 8.80912027 15.72559086 9.75 17.6875 C10.07846924 18.36894073 10.40693848 19.05038147 10.74536133 19.75247192 C16.45573213 31.60320927 21.94400894 43.54849626 27.35009766 55.54052734 C32.44383637 66.83267705 37.68162921 78.0531879 42.99023438 89.24584961 C53 110.40319504 53 110.40319504 53 114 C52.47792969 114.17015625 51.95585938 114.3403125 51.41796875 114.515625 C36.76747622 119.33925477 22.8538222 124.88405143 9.89453125 133.3828125 C7.00454468 134.32429266 5.75674206 133.30875402 3 132 C-0.03118567 130.18581106 -2.97247225 128.24241543 -5.91796875 126.29296875 C-6.79301559 125.71886765 -7.66806244 125.14476654 -8.56962585 124.55326843 C-11.38251097 122.70633972 -14.19127767 120.85325157 -17 119 C-18.8377859 117.79207341 -20.67583762 116.58455115 -22.51416016 115.37744141 C-27.17385531 112.31595914 -31.82958331 109.24850866 -36.48364258 106.1784668 C-39.32776612 104.30243018 -42.17262489 102.42751249 -45.01757812 100.55273438 C-55.36509167 93.73160432 -65.69560561 86.88607576 -76 80 C-77.80061457 78.79922918 -79.60137768 77.59868106 -81.40234375 76.3984375 C-85.6015625 73.59895833 -89.80078125 70.79947917 -94 68 C-87.78170694 55.17073191 -74.10459592 44.5335034 -63 36 C-61.99453125 35.22052002 -61.99453125 35.22052002 -60.96875 34.42529297 C-42.74311965 20.3750326 -22.20931464 6.81462278 0 0 Z " fill="#F7941E" transform="translate(476,192)"/>
<path d="M0 0 C4.16231562 1.51498735 7.86611595 3.57931765 11.64453125 5.859375 C12.28224457 6.24008148 12.91995789 6.62078796 13.57699585 7.01303101 C14.94518532 7.83024783 16.31242684 8.64905341 17.67880249 9.46929932 C21.30489421 11.64577378 24.93814403 13.81025011 28.5703125 15.9765625 C29.29649277 16.41012054 30.02267303 16.84367859 30.77085876 17.29037476 C36.8875909 20.94014665 43.02968355 24.54496048 49.1875 28.125 C51.09636301 29.23566188 53.00521705 30.34633918 54.9140625 31.45703125 C55.88375977 32.02115723 56.85345703 32.5852832 57.85253906 33.16650391 C63.92806888 36.70569324 69.99595358 40.25793908 76.0625 43.8125 C76.68268005 44.17586456 77.30286011 44.53922913 77.9418335 44.91360474 C86.99505635 50.2198067 96.02641119 55.56005238 105 61 C103.5701723 64.16553893 101.80931541 66.54830934 99.5625 69.1875 C90.57172081 80.25056405 83.38533469 92.83218497 76 105 C74.77925781 104.86722656 73.55851562 104.73445313 72.30078125 104.59765625 C70.63803176 104.41916902 68.97527071 104.24078948 67.3125 104.0625 C66.51521484 103.97548828 65.71792969 103.88847656 64.89648438 103.79882812 C53.77439209 102.61188547 42.71505531 101.84276376 31.52734375 101.796875 C30.37663895 101.79008728 29.22593414 101.78329956 28.0403595 101.77630615 C24.33937838 101.7594386 20.63851701 101.75311483 16.9375 101.75 C15.67675659 101.74766357 14.41601318 101.74532715 13.11706543 101.74291992 C-6.72765016 101.72905792 -26.31259301 102.51019616 -46.03222656 104.72460938 C-48.71134628 104.97321476 -51.31184272 105.05243967 -54 105 C-44.60723412 68.34530387 -27.36900105 35.01850794 -3.890625 5.3984375 C-1.91033227 2.95158356 -1.91033227 2.95158356 0 0 Z " fill="#F7941E" transform="translate(364,276)"/>
<path d="M0 0 C8.36139014 0.66240155 15.79902023 3.12175914 23.4375 6.4375 C24.47028076 6.87852051 25.50306152 7.31954102 26.56713867 7.77392578 C47.39379026 16.82234018 68.95522381 27.75521095 86 43 C86.598125 43.48339844 87.19625 43.96679688 87.8125 44.46484375 C89 46 89 46 88.984375 47.796875 C87.55676019 50.9920129 85.44322722 53.55644993 83.25 56.25 C82.52224365 57.15939331 82.52224365 57.15939331 81.77978516 58.0871582 C80.19386371 60.06414602 78.59774369 62.03255803 77 64 C75.89833788 65.36320075 74.79677598 66.7264825 73.6953125 68.08984375 C70.47454816 72.06890864 67.23958301 76.03624985 64 80 C63.17242188 81.01320313 62.34484375 82.02640625 61.4921875 83.0703125 C60.02969717 84.85893307 58.56620245 86.64673301 57.1015625 88.43359375 C55.67683835 90.17345205 54.25505291 91.91572016 52.8359375 93.66015625 C48.31286032 99.21411144 43.72419886 104.70558013 39.08642578 110.16357422 C35.44939361 114.45057514 31.88696938 118.7945042 28.33984375 123.15625 C25.1487715 127.03454816 21.8959099 130.85935656 18.62890625 134.67382812 C16.60033223 137.05327468 14.73728547 139.39407179 13 142 C7.79177529 141.49861884 4.13412794 138.76682879 -0.1875 136.0625 C-9.23161227 130.55569292 -18.63916773 126.80667478 -28.62963867 123.34985352 C-29.70318604 122.96756592 -30.7767334 122.58527832 -31.8828125 122.19140625 C-32.84590332 121.86342041 -33.80899414 121.53543457 -34.80126953 121.19750977 C-37 120 -37 120 -37.7416687 118.29705811 C-38.09209972 115.1810578 -37.31147701 113.02719079 -36.33203125 110.04956055 C-35.93941605 108.83859711 -35.54680084 107.62763367 -35.14228821 106.37997437 C-34.69918257 105.04883686 -34.25591491 103.71775327 -33.8125 102.38671875 C-33.35734522 100.99490753 -32.90315697 99.6027799 -32.44987488 98.21035767 C-31.23037896 94.47232347 -29.99862432 90.73843493 -28.76464462 87.00516129 C-27.49231649 83.14869573 -26.23126497 79.28855239 -24.9699707 75.4284668 C-24.46293372 73.87714239 -23.95586887 72.32582709 -23.44877625 70.77452087 C-23.19771307 70.00645552 -22.94664989 69.23839016 -22.68797874 68.44705009 C-21.92420728 66.11237625 -21.15899729 63.77817843 -20.39338684 61.44410706 C-17.29666248 51.99938059 -14.23825108 42.5438204 -11.23046875 33.0703125 C-10.70188766 31.40555626 -10.70188766 31.40555626 -10.16262817 29.70716858 C-8.84953763 25.56667025 -7.53865437 21.4254867 -6.23168945 17.28305054 C-5.35873577 14.51734365 -4.48234777 11.75274552 -3.60546875 8.98828125 C-3.22578194 7.77768539 -3.22578194 7.77768539 -2.83842468 6.54263306 C-1.11322816 1.11322816 -1.11322816 1.11322816 0 0 Z " fill="#F7941E" transform="translate(656,189)"/>
<path d="M0 0 C5.99401864 0.95850298 9.79061395 5.96595209 14 10 C14.89936279 10.85053955 14.89936279 10.85053955 15.81689453 11.71826172 C30.06865187 25.2586886 41.88901277 40.14835461 52 57 C52.72896484 58.20462891 52.72896484 58.20462891 53.47265625 59.43359375 C55.06982962 62.29767752 56.0097545 64.46725432 55.94921875 67.7734375 C54.65264417 72.18072395 52.24953198 74.77539797 49.1875 78.125 C48.60218506 78.77952148 48.01687012 79.43404297 47.41381836 80.10839844 C45.6267522 82.08926606 43.81891024 84.04836662 42 86 C41.2260791 86.8338623 41.2260791 86.8338623 40.43652344 87.68457031 C32.95710714 95.65898438 24.82148606 102.55418207 16 109 C15.17653076 109.60593994 15.17653076 109.60593994 14.33642578 110.22412109 C0.28913767 120.41872467 -15.43939681 128.46930514 -31.046875 135.98046875 C-31.90635742 136.39578857 -32.76583984 136.8111084 -33.65136719 137.23901367 C-36.30533685 138.09893295 -37.46241372 138.12207128 -40 137 C-41.47129598 134.84894715 -42.70672949 132.78260328 -43.9375 130.5 C-50.06857259 119.75375084 -57.53549056 109.96623968 -65.7578125 100.73046875 C-66.36334961 100.04984375 -66.96888672 99.36921875 -67.59277344 98.66796875 C-68.75754669 97.37363442 -69.93487816 96.09046316 -71.12597656 94.8203125 C-72.7109375 93.07421875 -72.7109375 93.07421875 -75 90 C-74.52841132 85.88369049 -72.30880086 83.88067251 -69.5 80.9375 C-66.01721446 77.22985743 -62.68888487 73.46902278 -59.5 69.5 C-55.66280969 64.74404581 -51.60614899 60.24495199 -47.46875 55.75 C-45.05621896 53.06262366 -42.7674379 50.31034556 -40.5 47.5 C-36.66280969 42.74404581 -32.60614899 38.24495199 -28.46875 33.75 C-25.27360498 30.19085112 -22.29041893 26.48034291 -19.2890625 22.7578125 C-16.89986524 19.87935983 -14.41056373 17.12505251 -11.875 14.375 C-7.63951543 9.77552848 -3.73659152 5.01099193 0 0 Z " fill="#F7941E" transform="translate(759,254)"/>
<path d="M0 0 C-1.12799464 3.38398392 -1.50476336 3.58932368 -4.4375 5.27734375 C-5.159375 5.70233154 -5.88125 6.12731934 -6.625 6.56518555 C-7.40875 7.01804932 -8.1925 7.47091309 -9 7.9375 C-22.56192535 15.996685 -36.80327499 24.89036519 -48.0625 36.04296875 C-51.43442792 39.34245291 -53.17214587 40.86859458 -57.9375 41.625 C-60.80581253 41.40324811 -63.51371616 40.89280014 -66.33203125 40.3046875 C-98.70400997 33.65600593 -130.98598442 39.49957351 -160.9453125 52.71484375 C-164.29599169 54.12452847 -166.40849144 54.57137636 -170 54 C-173.65203479 50.45312851 -174.56283727 45.50516555 -175.875 40.75 C-176.25809326 39.38270752 -176.25809326 39.38270752 -176.64892578 37.98779297 C-178.62623803 30.75070769 -180.31836763 23.463248 -181.875 16.125 C-182.0901123 15.12178711 -182.30522461 14.11857422 -182.52685547 13.08496094 C-184.72169943 2.34129962 -184.72169943 2.34129962 -184 -2 C-179.3905135 -6.39293344 -173.25259248 -7.75173937 -167.25 -9.5 C-166.22720947 -9.80260742 -165.20441895 -10.10521484 -164.15063477 -10.41699219 C-155.16944592 -13.03046562 -146.19563538 -15.29175898 -137 -17 C-136.24154785 -17.14953125 -135.4830957 -17.2990625 -134.70166016 -17.453125 C-90.91290679 -25.82649469 -39.92338702 -19.89333155 0 0 Z " fill="#25AAE1" transform="translate(488,489)"/>
<path d="M0 0 C0.4021875 0.45117188 0.804375 0.90234375 1.21875 1.3671875 C1.54875 -0.6128125 1.87875 -2.5928125 2.21875 -4.6328125 C10.13875 -4.6328125 18.05875 -4.6328125 26.21875 -4.6328125 C26.21875 22.0971875 26.21875 48.8271875 26.21875 76.3671875 C18.62875 76.3671875 11.03875 76.3671875 3.21875 76.3671875 C2.88875 74.3871875 2.55875 72.4071875 2.21875 70.3671875 C1.67089844 70.77710938 1.12304688 71.18703125 0.55859375 71.609375 C-8.48989668 77.75940589 -18.37331695 79.25509902 -29.15625 77.7421875 C-39.48230152 75.55516854 -48.80064495 70.92439634 -55.03125 62.1796875 C-55.98528045 60.59745668 -56.90235808 58.99235748 -57.78125 57.3671875 C-58.19632813 56.61308594 -58.61140625 55.85898437 -59.0390625 55.08203125 C-63.76609648 44.65280594 -63.75306446 29.69636505 -60.03125 18.9296875 C-58.3268617 15.13082202 -56.3093906 11.68537204 -53.78125 8.3671875 C-53.224375 7.5421875 -52.6675 6.7171875 -52.09375 5.8671875 C-44.96463879 -1.83995975 -35.51101379 -5.72033616 -25.16015625 -6.56640625 C-16.6119392 -6.80502643 -6.61249472 -6.06145349 0 0 Z M-32.5703125 20.4609375 C-36.91962109 26.64478858 -38.28806184 31.7650099 -37.78125 39.3671875 C-36.34712688 45.50439085 -34.41191756 50.7517303 -29.1328125 54.5546875 C-23.54456195 57.83921027 -18.13867712 58.14843814 -11.78125 57.3671875 C-5.72219895 55.4237183 -1.77253186 50.83118823 1.34375 45.41015625 C3.98989267 39.23188563 3.63887963 32.5417885 1.21875 26.3671875 C-1.79498645 20.87788183 -5.71963113 16.38772712 -11.78125 14.3671875 C-19.91452118 13.56568582 -27.00707814 13.95025274 -32.5703125 20.4609375 Z " fill="#0B9444" transform="translate(864.78125,859.6328125)"/>
<path d="M0 0 C0.4021875 0.45117188 0.804375 0.90234375 1.21875 1.3671875 C1.54875 -0.6128125 1.87875 -2.5928125 2.21875 -4.6328125 C10.13875 -4.6328125 18.05875 -4.6328125 26.21875 -4.6328125 C26.21875 22.0971875 26.21875 48.8271875 26.21875 76.3671875 C18.62875 76.3671875 11.03875 76.3671875 3.21875 76.3671875 C2.88875 74.3871875 2.55875 72.4071875 2.21875 70.3671875 C1.67089844 70.77710938 1.12304688 71.18703125 0.55859375 71.609375 C-8.48989668 77.75940589 -18.37331695 79.25509902 -29.15625 77.7421875 C-39.48230152 75.55516854 -48.80064495 70.92439634 -55.03125 62.1796875 C-55.98528045 60.59745668 -56.90235808 58.99235748 -57.78125 57.3671875 C-58.19632813 56.61308594 -58.61140625 55.85898437 -59.0390625 55.08203125 C-63.76609648 44.65280594 -63.75306446 29.69636505 -60.03125 18.9296875 C-58.3268617 15.13082202 -56.3093906 11.68537204 -53.78125 8.3671875 C-53.224375 7.5421875 -52.6675 6.7171875 -52.09375 5.8671875 C-44.96463879 -1.83995975 -35.51101379 -5.72033616 -25.16015625 -6.56640625 C-16.6119392 -6.80502643 -6.61249472 -6.06145349 0 0 Z M-32.5703125 20.4609375 C-36.91962109 26.64478858 -38.28806184 31.7650099 -37.78125 39.3671875 C-36.34712688 45.50439085 -34.41191756 50.7517303 -29.1328125 54.5546875 C-23.54456195 57.83921027 -18.13867712 58.14843814 -11.78125 57.3671875 C-5.72219895 55.4237183 -1.77253186 50.83118823 1.34375 45.41015625 C3.98989267 39.23188563 3.63887963 32.5417885 1.21875 26.3671875 C-1.79498645 20.87788183 -5.71963113 16.38772712 -11.78125 14.3671875 C-19.91452118 13.56568582 -27.00707814 13.95025274 -32.5703125 20.4609375 Z " fill="#0B9444" transform="translate(663.78125,859.6328125)"/>
<path d="M0 0 C0.4021875 0.45117188 0.804375 0.90234375 1.21875 1.3671875 C1.54875 -0.6128125 1.87875 -2.5928125 2.21875 -4.6328125 C10.13875 -4.6328125 18.05875 -4.6328125 26.21875 -4.6328125 C26.21875 22.0971875 26.21875 48.8271875 26.21875 76.3671875 C18.62875 76.3671875 11.03875 76.3671875 3.21875 76.3671875 C2.88875 74.3871875 2.55875 72.4071875 2.21875 70.3671875 C1.67089844 70.77710938 1.12304688 71.18703125 0.55859375 71.609375 C-8.48989668 77.75940589 -18.37331695 79.25509902 -29.15625 77.7421875 C-39.48230152 75.55516854 -48.80064495 70.92439634 -55.03125 62.1796875 C-55.98528045 60.59745668 -56.90235808 58.99235748 -57.78125 57.3671875 C-58.19632812 56.61308594 -58.61140625 55.85898437 -59.0390625 55.08203125 C-63.76609648 44.65280594 -63.75306446 29.69636505 -60.03125 18.9296875 C-58.3268617 15.13082202 -56.3093906 11.68537204 -53.78125 8.3671875 C-53.224375 7.5421875 -52.6675 6.7171875 -52.09375 5.8671875 C-44.96463879 -1.83995975 -35.51101379 -5.72033616 -25.16015625 -6.56640625 C-16.6119392 -6.80502643 -6.61249472 -6.06145349 0 0 Z M-32.5703125 20.4609375 C-36.91962109 26.64478858 -38.28806184 31.7650099 -37.78125 39.3671875 C-36.34712688 45.50439085 -34.41191756 50.7517303 -29.1328125 54.5546875 C-23.54456195 57.83921027 -18.13867712 58.14843814 -11.78125 57.3671875 C-5.72219895 55.4237183 -1.77253186 50.83118823 1.34375 45.41015625 C3.98989267 39.23188563 3.63887963 32.5417885 1.21875 26.3671875 C-1.79498645 20.87788183 -5.71963113 16.38772712 -11.78125 14.3671875 C-19.91452118 13.56568582 -27.00707814 13.95025274 -32.5703125 20.4609375 Z " fill="#0B9444" transform="translate(421.78125,859.6328125)"/>
<path d="M0 0 C1.21623047 0.54333984 1.21623047 0.54333984 2.45703125 1.09765625 C8.43669318 4.10276744 13.18104011 8.40888691 18 13 C17.12004508 17.8995837 14.23636368 20.06419155 10.6875 23.3125 C10.10548828 23.87517578 9.52347656 24.43785156 8.92382812 25.01757812 C7.19921875 26.61328125 7.19921875 26.61328125 4 29 C0.71949657 28.57670924 -0.76794246 27.50553127 -3.0625 25.1875 C-9.85640603 19.18862552 -18.0947142 17.2778816 -27.01171875 17.61328125 C-34.54390485 18.58803475 -42.61229942 21.4506684 -48 27 C-54.90243361 36.39497908 -57.0932583 45.41956019 -56 57 C-53.81798919 66.17624006 -50.16270908 73.24630761 -42.125 78.3125 C-33.09225666 83.29379228 -23.37727106 84.79300422 -13.3125 81.9375 C-8.93312648 80.2782838 -5.52031584 77.6002632 -1.9453125 74.62109375 C0 73 0 73 3 71 C3.4125 71.42410156 3.825 71.84820313 4.25 72.28515625 C8.64850435 76.75238723 13.23472137 80.9278528 18 85 C17.16762844 90.74976663 12.38382296 93.6807253 8 97 C-2.13583689 103.34506643 -12.98208642 105.55886208 -24.8125 105.4375 C-25.86276367 105.42920166 -26.91302734 105.42090332 -27.99511719 105.41235352 C-43.3345398 105.07986526 -56.55502627 100.38383578 -67.875 89.6875 C-80.20611992 76.46443651 -82.91795301 61.99980118 -82.37890625 44.484375 C-81.62021489 30.50923263 -75.51112319 18.4293246 -65.27734375 8.84375 C-47.76098338 -5.3375915 -20.78851724 -9.47757512 0 0 Z " fill="#0B9444" transform="translate(337,833)"/>
<path d="M0 0 C-3.36122498 4.6455955 -6.89801851 9.07933616 -10.625 13.4375 C-27.81886891 33.84272617 -39.80189295 56.91979351 -51 81 C-55 81 -55 81 -57.04516602 79.26953125 C-62.92399186 72.53940916 -68.04364748 65.46950206 -72.9375 58 C-73.32608185 57.41238892 -73.7146637 56.82477783 -74.11502075 56.21936035 C-80.57998511 46.43743536 -86.77174851 36.50762114 -92 26 C-92.31340332 25.39865234 -92.62680664 24.79730469 -92.94970703 24.17773438 C-94.34384556 21.30306001 -94.99940054 19.01526745 -95.125 15.81640625 C-93.5159313 11.78814746 -90.76159912 10.63820195 -87 8.9375 C-86.28448975 8.59952393 -85.56897949 8.26154785 -84.83178711 7.91333008 C-61.43107705 -2.76134861 -24.2927515 -10.97092003 0 0 Z " fill="#0F75BC" transform="translate(421,545)"/>
<path d="M0 0 C-1.89536276 6.51819877 -4.5178994 12.17814801 -8 18 C-8.54527344 17.80664062 -9.09054687 17.61328125 -9.65234375 17.4140625 C-20.69709532 13.60031922 -31.64654218 10.74245332 -43 15 C-45.28728734 16.83883881 -45.28728734 16.83883881 -45.125 19.625 C-45.08375 20.40875 -45.0425 21.1925 -45 22 C-37.78923739 25.57438949 -30.21714515 26.60055272 -22.3359375 27.9296875 C-12.53003704 29.72980449 -4.82084498 32.63253534 1 41 C3.04813756 47.14441267 3.19394326 55.35122013 1.1640625 61.5546875 C-3.47329399 69.55334936 -11.12546114 73.66745646 -19.74609375 76.24609375 C-36.19533568 80.05726265 -53.5761943 77.52948084 -69 71 C-69.66 70.34 -70.32 69.68 -71 69 C-70.6393105 64.67940022 -68.77836779 61.06507257 -66.9375 57.1875 C-66.38964844 56.02605469 -65.84179688 54.86460937 -65.27734375 53.66796875 C-64.85582031 52.78753906 -64.43429687 51.90710938 -64 51 C-62.94619141 51.43119141 -62.94619141 51.43119141 -61.87109375 51.87109375 C-58.95720137 53.01682831 -56.02817473 54.05867445 -53.0625 55.0625 C-52.06347656 55.40410156 -51.06445312 55.74570312 -50.03515625 56.09765625 C-41.16912211 58.73350424 -31.74226067 59.23083547 -23 56 C-21.70366379 54.93354885 -21.70366379 54.93354885 -21.9375 52.4375 C-21.958125 51.633125 -21.97875 50.82875 -22 50 C-28.08319396 47.49724072 -33.90358809 46.15097447 -40.375 45.0625 C-59.68033326 41.53540323 -59.68033326 41.53540323 -66.72265625 32.90234375 C-70.52498409 27.23954969 -69.4772989 19.53217642 -69 13 C-67.41028662 6.73691233 -63.33402307 2.45990686 -58 -1 C-41.552406 -10.09103377 -16.44076078 -9.12012352 0 0 Z " fill="#0B9444" transform="translate(533,860)"/>
<path d="M0 0 C7.92 0 15.84 0 24 0 C24 6.6 24 13.2 24 20 C30.6 20 37.2 20 44 20 C44 25.94 44 31.88 44 38 C37.4 38 30.8 38 24 38 C24.02810916 43.1797524 24.07119883 48.35488778 24.15258789 53.53344727 C24.17574364 55.29376991 24.19015794 57.05423061 24.19555664 58.81469727 C24.20486442 61.34999379 24.24589048 63.88312628 24.29296875 66.41796875 C24.2890361 67.20149216 24.28510345 67.98501556 24.28105164 68.7922821 C24.39197429 72.97319327 24.67984251 74.5864227 27.3293457 78.0090332 C30.83256827 80.62067778 32.70989913 80.52685449 37 80 C40.32186171 79.08885464 40.32186171 79.08885464 43 78 C43.99842929 80.22465555 44.99106843 82.4514421 45.97265625 84.68359375 C46.72682744 86.3840634 47.51125368 88.07119818 48.3125 89.75 C49.23174457 92.75843679 49.36164698 94.12541193 48 97 C41.94803335 99.84113819 36.76178199 100.51891355 30.125 100.4375 C29.24166992 100.42775146 28.35833984 100.41800293 27.44824219 100.40795898 C18.10999797 100.15354616 12.06248266 98.52491528 5.5 91.625 C0.56294642 85.89882721 -0.29924924 80.27166 -0.22705078 72.88330078 C-0.22734283 72.09238541 -0.22763489 71.30147003 -0.22793579 70.48658752 C-0.22654973 67.8893817 -0.21102287 65.29246781 -0.1953125 62.6953125 C-0.19157979 60.88784949 -0.18873404 59.08038446 -0.18673706 57.2729187 C-0.1791209 52.52838501 -0.1594898 47.78397483 -0.1373291 43.03948975 C-0.11682715 38.19301016 -0.10772605 33.34651051 -0.09765625 28.5 C-0.07624194 18.99993716 -0.04107629 9.4999982 0 0 Z " fill="#0B9444" transform="translate(548,837)"/>
<path d="M0 0 C7.92 0 15.84 0 24 0 C24.01981934 2.47765869 24.03963867 4.95531738 24.06005859 7.50805664 C24.1270512 15.70642256 24.20468947 23.90466298 24.28752708 32.10288334 C24.33741187 37.07206 24.38374255 42.0412162 24.421875 47.01049805 C24.45882661 51.80869099 24.50521325 56.6067095 24.55806351 61.40475273 C24.57655504 63.23267994 24.59168222 65.06064447 24.60334396 66.88862801 C24.62029636 69.45465981 24.64935255 72.02029667 24.68115234 74.58618164 C24.68331253 75.33712601 24.68547272 76.08807037 24.68769836 76.86177063 C24.76210831 81.5809117 25.41078829 85.54032876 27 90 C29.32790771 91.89269018 30.59037595 92.00372385 33.578125 91.9765625 C34.45984375 91.86054687 35.3415625 91.74453125 36.25 91.625 C37.14203125 91.51414062 38.0340625 91.40328125 38.953125 91.2890625 C39.62859375 91.19367188 40.3040625 91.09828125 41 91 C42.23839599 97.65637843 42.09139136 104.2471936 42 111 C34.2381358 113.58728807 22.2263355 113.53045388 14.6875 110.3125 C12.71875 109.1875 12.71875 109.1875 11 108 C9.906875 107.278125 8.81375 106.55625 7.6875 105.8125 C0.78380466 98.58770256 -0.15598891 89.87936881 -0.11352539 80.26245117 C-0.11367142 79.39365326 -0.11381744 78.52485535 -0.1139679 77.62973022 C-0.11327306 74.76745071 -0.10550073 71.90523685 -0.09765625 69.04296875 C-0.09579055 67.05471329 -0.09436736 65.06645738 -0.09336853 63.07820129 C-0.08955534 57.85200729 -0.07973528 52.6258412 -0.06866455 47.3996582 C-0.05842467 42.06396868 -0.05386539 36.72827464 -0.04882812 31.39257812 C-0.03811194 20.9283712 -0.02052483 10.46419229 0 0 Z " fill="#0B9444" transform="translate(711,825)"/>
<path d="M0 0 C7.92 0 15.84 0 24 0 C24 26.73 24 53.46 24 81 C16.08 81 8.16 81 0 81 C0 54.27 0 27.54 0 0 Z " fill="#0B9444" transform="translate(763,855)"/>
<path d="M0 0 C2.52750327 1.06396737 3.92722406 2.1575325 6 4 C6.721875 3.34 7.44375 2.68 8.1875 2 C13.18198694 -1.32568462 19.27873566 -0.85055645 25 0 C29.00253545 1.87874113 31.40497593 4.91594849 33 9 C33.22705078 11.93261719 33.22705078 11.93261719 33.1953125 15.296875 C33.18886719 16.50214844 33.18242188 17.70742188 33.17578125 18.94921875 C33.15902344 20.20347656 33.14226563 21.45773437 33.125 22.75 C33.11597656 24.01972656 33.10695313 25.28945313 33.09765625 26.59765625 C33.07409005 29.73196093 33.04118832 32.86588541 33 36 C29.37 36 25.74 36 22 36 C21.93941406 34.36289062 21.87882813 32.72578125 21.81640625 31.0390625 C21.73201032 28.9010322 21.64736185 26.76301186 21.5625 24.625 C21.52318359 23.54476562 21.48386719 22.46453125 21.44335938 21.3515625 C21.40146484 20.3203125 21.35957031 19.2890625 21.31640625 18.2265625 C21.26141968 16.79691162 21.26141968 16.79691162 21.20532227 15.33837891 C21.14236535 12.97867651 21.14236535 12.97867651 20 11 C16.62989665 10.02641459 14.83181266 9.55037154 11.6875 11.25 C8.95362062 14.08513417 8.85135433 16.90533861 8.68359375 20.66796875 C8.62075195 22.00698242 8.62075195 22.00698242 8.55664062 23.37304688 C8.51732422 24.30181641 8.47800781 25.23058594 8.4375 26.1875 C8.37272461 27.59805664 8.37272461 27.59805664 8.30664062 29.03710938 C8.20061457 31.35790188 8.09980806 33.67893177 8 36 C4.37 36 0.74 36 -3 36 C-3.06058594 34.36289062 -3.12117187 32.72578125 -3.18359375 31.0390625 C-3.26798968 28.9010322 -3.35263815 26.76301186 -3.4375 24.625 C-3.47681641 23.54476562 -3.51613281 22.46453125 -3.55664062 21.3515625 C-3.59853516 20.3203125 -3.64042969 19.2890625 -3.68359375 18.2265625 C-3.72025146 17.27346191 -3.75690918 16.32036133 -3.79467773 15.33837891 C-3.85763465 12.97867651 -3.85763465 12.97867651 -5 11 C-8.33691324 10.03600284 -10.16827607 9.57289852 -13.3125 11.1875 C-16.11106038 14.19336115 -16.12817404 17.56710834 -16.31640625 21.546875 C-16.35830078 22.39121094 -16.40019531 23.23554687 -16.44335938 24.10546875 C-16.48267578 24.97816406 -16.52199219 25.85085938 -16.5625 26.75 C-16.60568359 27.63816406 -16.64886719 28.52632812 -16.69335938 29.44140625 C-16.79913495 31.62743472 -16.9000426 33.81369777 -17 36 C-20.63 36 -24.26 36 -28 36 C-28 24.45 -28 12.9 -28 1 C-23.33333333 1 -18.66666667 1 -14 1 C-9.82757272 -1.08621364 -4.54313381 -0.45549649 0 0 Z " fill="#F69123" transform="translate(783,772)"/>
<path d="M0 0 C1.29550781 -0.02578125 2.59101562 -0.0515625 3.92578125 -0.078125 C8.72295499 0.34032006 11.93637288 1.67099221 15.515625 4.8984375 C15.98484375 5.46820312 16.4540625 6.03796875 16.9375 6.625 C17.41703125 7.18960938 17.8965625 7.75421875 18.390625 8.3359375 C21.58201486 13.04612133 21.92766328 17.10950814 21.8828125 22.73828125 C21.8799826 23.44147995 21.87715271 24.14467865 21.87423706 24.8691864 C21.86310151 27.10046892 21.83800997 29.33134017 21.8125 31.5625 C21.8024616 33.08137438 21.79333726 34.6002551 21.78515625 36.11914062 C21.76318413 39.82955921 21.72870047 43.53973942 21.6875 47.25 C18.0575 47.25 14.4275 47.25 10.6875 47.25 C10.6875 43.62 10.6875 39.99 10.6875 36.25 C3.7575 36.25 -3.1725 36.25 -10.3125 36.25 C-10.3125 39.88 -10.3125 43.51 -10.3125 47.25 C-13.9425 47.25 -17.5725 47.25 -21.3125 47.25 C-21.41208121 42.69684078 -21.48429985 38.14432848 -21.53222656 33.59033203 C-21.55222503 32.04432113 -21.57943331 30.49838473 -21.61425781 28.95263672 C-21.96806259 12.8337071 -21.96806259 12.8337071 -17.3125 6.25 C-15.49609375 4.41015625 -15.49609375 4.41015625 -13.75 3.3125 C-12.88181641 2.74208984 -12.88181641 2.74208984 -11.99609375 2.16015625 C-8.02048191 0.01092758 -4.44176587 0.05272126 0 0 Z M-8.625 13.1875 C-11.21525162 17.88832702 -10.5688116 21.93153439 -10.3125 27.25 C-3.3825 27.25 3.5475 27.25 10.6875 27.25 C10.81269752 19.11034191 10.81269752 19.11034191 7.6875 12.25 C1.55800797 8.29136973 -3.02396813 8.49474357 -8.625 13.1875 Z " fill="#F69123" transform="translate(657.3125,760.75)"/>
<path d="M0 0 C-0.4794463 4.21912747 -1.16625119 6.79663178 -4 10 C-4.969375 9.505 -5.93875 9.01 -6.9375 8.5 C-11.2057001 6.66580403 -15.4093499 6.31496113 -20 7 C-20.99 7.66 -21.98 8.32 -23 9 C-22.76350511 10.9641528 -22.76350511 10.9641528 -22 13 C-18.50092129 14.59049032 -15.13216506 15.70323552 -11.421875 16.67578125 C-5.97384971 18.13565629 -2.64445596 19.41503927 1 24 C2.8680999 27.73619981 2.54372628 31.93142747 2 36 C0.29284296 39.69756434 -2.49643697 41.67158933 -5.875 43.875 C-15.00588016 47.20438207 -25.41634235 45.52415343 -34.12109375 41.875 C-35.05115234 41.441875 -35.05115234 41.441875 -36 41 C-35.49287967 37.28111761 -34.88391785 34.26545761 -33 31 C-31.948125 31.433125 -31.948125 31.433125 -30.875 31.875 C-29.92625 32.24625 -28.9775 32.6175 -28 33 C-27.0925 33.37125 -26.185 33.7425 -25.25 34.125 C-21.15833064 35.22660329 -17.21457178 35.54588739 -13 35 C-12.01 34.34 -11.02 33.68 -10 33 C-10.20216512 31.03194389 -10.20216512 31.03194389 -11 29 C-12.70588583 27.96348874 -12.70588583 27.96348874 -14.859375 27.4375 C-16.03886719 27.07785156 -16.03886719 27.07785156 -17.2421875 26.7109375 C-18.06976563 26.47632813 -18.89734375 26.24171875 -19.75 26 C-29.80599389 23.0949351 -29.80599389 23.0949351 -34 19 C-35.98709286 15.02581427 -35.53100065 10.32124663 -35 6 C-33.32783579 2.25075289 -30.52761866 0.34409913 -27.125 -1.875 C-18.58653368 -5.02766449 -8.03346713 -3.93475941 0 0 Z " fill="#F69123" transform="translate(368,764)"/>
<path d="M0 0 C3.63 0 7.26 0 11 0 C11.33 8.58 11.66 17.16 12 26 C14.64 23.36 17.28 20.72 20 18 C23.09100206 14.98021919 24.22624456 14.08512161 28.55078125 13.609375 C29.79214844 13.65578125 31.03351563 13.7021875 32.3125 13.75 C33.56675781 13.78609375 34.82101562 13.8221875 36.11328125 13.859375 C37.54220703 13.92898438 37.54220703 13.92898438 39 14 C34.88380164 18.91935902 30.59589638 23.52647956 26 28 C27.56864418 33.12291391 30.76293674 36.70148299 34.125 40.75 C35.23379251 42.09729708 36.34067551 43.44616875 37.4453125 44.796875 C37.93531738 45.38823242 38.42532227 45.97958984 38.93017578 46.58886719 C40 48 40 48 40 49 C28.49913431 50.78976008 28.49913431 50.78976008 24.35546875 47.82226562 C21.0747717 44.57971622 18.49540297 40.86384976 16 37 C12.82754044 38.94757827 12.82754044 38.94757827 11.390625 42.26171875 C11.32101562 43.46248047 11.32101562 43.46248047 11.25 44.6875 C11.1675 46.110625 11.085 47.53375 11 49 C7.37 49 3.74 49 0 49 C0 32.83 0 16.66 0 0 Z " fill="#F69123" transform="translate(417,759)"/>
<path d="M0 0 C3.63 0 7.26 0 11 0 C11.33 4.95 11.66 9.9 12 15 C13.32 14.34 14.64 13.68 16 13 C18.83984375 12.69921875 18.83984375 12.69921875 21.9375 12.6875 C22.95714844 12.67074219 23.97679687 12.65398438 25.02734375 12.63671875 C29.70609845 13.20849823 32.02670012 15.01676849 35.296875 18.3203125 C38.45132471 23.45184688 37.40645622 30.09815499 37.25 35.875 C37.23195313 37.13570312 37.21390625 38.39640625 37.1953125 39.6953125 C37.14830729 42.79765614 37.08260676 45.8984338 37 49 C33.37 49 29.74 49 26 49 C25.93941406 47.36289062 25.87882813 45.72578125 25.81640625 44.0390625 C25.73201032 41.9010322 25.64736185 39.76301186 25.5625 37.625 C25.52318359 36.54476562 25.48386719 35.46453125 25.44335938 34.3515625 C25.40146484 33.3203125 25.35957031 32.2890625 25.31640625 31.2265625 C25.27974854 30.27346191 25.24309082 29.32036133 25.20532227 28.33837891 C25.14236535 25.97867651 25.14236535 25.97867651 24 24 C20.45600474 22.95291049 18.62543246 22.73592852 15.1875 24.1875 C12.68563373 26.26047491 12.54536951 26.90922517 12 30 C11.85870882 31.51270605 11.75537183 33.02928128 11.68359375 34.546875 C11.64169922 35.39121094 11.59980469 36.23554687 11.55664062 37.10546875 C11.51732422 37.97816406 11.47800781 38.85085938 11.4375 39.75 C11.39431641 40.63816406 11.35113281 41.52632812 11.30664062 42.44140625 C11.20086505 44.62743472 11.0999574 46.81369777 11 49 C7.37 49 3.74 49 0 49 C0 32.83 0 16.66 0 0 Z " fill="#F69123" transform="translate(570,759)"/>
<path d="M0 0 C1.04027344 -0.00257813 2.08054687 -0.00515625 3.15234375 -0.0078125 C6.0625 0.125 6.0625 0.125 10.0625 1.125 C13.6925 1.125 17.3225 1.125 21.0625 1.125 C21.0625 12.675 21.0625 24.225 21.0625 36.125 C16.72916667 36.125 12.39583333 36.125 8.0625 36.125 C7.0725 36.62 7.0725 36.62 6.0625 37.125 C-0.38351568 37.62678565 -6.52236659 38.08729274 -11.9375 34.125 C-16.69038701 29.37211299 -18.10267926 25.54320202 -18.25 18.875 C-18.19716156 12.93727996 -17.60462636 9.78324159 -13.9375 5.125 C-9.37787136 0.89900272 -6.12599322 -0.01514461 0 0 Z M-4.875 11.6875 C-6.64424374 14.18560163 -6.99996008 15.47477648 -7.5625 18.625 C-6.71053522 23.39600277 -5.60021372 24.92986675 -1.9375 28.125 C1.5625 29.04166667 1.5625 29.04166667 5.0625 28.125 C8.31665498 25.71975502 9.75821685 24.01883177 11.0625 20.1875 C11.0625 16.37775797 10.095689 14.32001129 8.0625 11.125 C3.18072482 7.87048321 -0.40028721 7.78402714 -4.875 11.6875 Z " fill="#F69123" transform="translate(725.9375,771.875)"/>
<path d="M0 0 C1.04027344 -0.00257813 2.08054687 -0.00515625 3.15234375 -0.0078125 C6.0625 0.125 6.0625 0.125 10.0625 1.125 C13.6925 1.125 17.3225 1.125 21.0625 1.125 C21.0625 12.675 21.0625 24.225 21.0625 36.125 C16.72916667 36.125 12.39583333 36.125 8.0625 36.125 C7.0725 36.62 7.0725 36.62 6.0625 37.125 C-0.38351568 37.62678565 -6.52236659 38.08729274 -11.9375 34.125 C-16.69038701 29.37211299 -18.10267926 25.54320202 -18.25 18.875 C-18.19716156 12.93727996 -17.60462636 9.78324159 -13.9375 5.125 C-9.37787136 0.89900272 -6.12599322 -0.01514461 0 0 Z M-4.875 11.6875 C-6.64424374 14.18560163 -6.99996008 15.47477648 -7.5625 18.625 C-6.71053522 23.39600277 -5.60021372 24.92986675 -1.9375 28.125 C1.5625 29.04166667 1.5625 29.04166667 5.0625 28.125 C8.31665498 25.71975502 9.75821685 24.01883177 11.0625 20.1875 C11.0625 16.37775797 10.095689 14.32001129 8.0625 11.125 C3.18072482 7.87048321 -0.40028721 7.78402714 -4.875 11.6875 Z " fill="#F69123" transform="translate(540.9375,771.875)"/>
<path d="M0 0 C4.24919965 2.60173453 6.87555019 5.78313427 8.5 10.5 C9.43321689 16.62710433 9.54574809 22.52006725 6.5 28.0625 C3.50538006 31.99709787 0.30429188 34.27974056 -4.5 35.5 C-11.23185333 36.21597951 -17.80952451 36.62559473 -23.5 32.5 C-27.65119396 28.82053263 -30.21590646 26.05684185 -30.8359375 20.4765625 C-30.96733729 9.20246031 -30.96733729 9.20246031 -26.5 4.5 C-19.33780866 -2.32558705 -9.31427401 -4.04271549 0 0 Z M-16.875 9.375 C-19.7829184 13.17766252 -19.74693673 15.72588985 -19.5 20.5 C-18.31232145 23.88031589 -17.60174775 24.43216817 -14.5 26.5 C-9.4169001 27.06526648 -9.4169001 27.06526648 -5.125 24.625 C-2.2170816 20.82233748 -2.25306327 18.27411015 -2.5 13.5 C-3.68767855 10.11968411 -4.39825225 9.56783183 -7.5 7.5 C-12.5830999 6.93473352 -12.5830999 6.93473352 -16.875 9.375 Z " fill="#F69123" transform="translate(487.5,773.5)"/>
<path d="M0 0 C7.18757955 5.39068466 7.62267929 8.48839644 9.5 17.875 C1.25 19.525 -7 21.175 -15.5 22.875 C-12.94709082 26.00320869 -12.94709082 26.00320869 -10.4140625 26.23828125 C-6.02279737 26.14086411 -2.49217633 25.93547811 1.5 23.875 C3.15 25.525 4.8 27.175 6.5 28.875 C5.46685267 31.87112725 4.60208331 32.81281651 1.8515625 34.48828125 C-1.85716527 36.02277817 -4.5021519 36.27630163 -8.5 36.25 C-9.675625 36.25773438 -10.85125 36.26546875 -12.0625 36.2734375 C-18.41481877 35.53714601 -22.35193148 32.59918915 -26.5 27.875 C-29.73427078 22.7342117 -29.16931081 16.71055362 -28.5 10.875 C-26.74466857 5.88327625 -23.54971435 1.8831005 -18.72265625 -0.50390625 C-12.60126731 -2.21445255 -6.00687722 -1.93078196 0 0 Z M-16.5 9.875 C-17.16 11.855 -17.82 13.835 -18.5 15.875 C-12.89 14.885 -7.28 13.895 -1.5 12.875 C-3.56083371 8.57289432 -3.56083371 8.57289432 -7.5 6.875 C-11.8457707 6.875 -13.15856521 7.23702517 -16.5 9.875 Z " fill="#F69123" transform="translate(402.5,773.125)"/>
<path d="M0 0 C2.6624203 1.72429702 4.12579702 3.56564866 5.88671875 6.20703125 C6.60280807 11.51108818 6.50914838 15.93994237 4.13671875 20.76953125 C1.15726643 23.99727127 -0.7500634 25.0555626 -5.13671875 25.54296875 C-16.52053699 25.67564728 -16.52053699 25.67564728 -21.11328125 21.20703125 C-23.83634196 16.74766354 -23.77036394 12.28740227 -23.11328125 7.20703125 C-18.67914494 -1.66124137 -9.14852753 -3.43281163 0 0 Z " fill="#0B9444" transform="translate(784.11328125,818.79296875)"/>
<path d="M0 0 C3.63 0 7.26 0 11 0 C11.02505615 1.14065918 11.0501123 2.28131836 11.07592773 3.45654297 C11.16994293 7.67964341 11.27017787 11.90257709 11.37231445 16.12548828 C11.41568565 17.95487575 11.45735911 19.78430427 11.49731445 21.61376953 C11.55496418 24.24003486 11.61867365 26.8660931 11.68359375 29.4921875 C11.70030624 30.31306854 11.71701874 31.13394958 11.73423767 31.97970581 C11.7431387 36.1233696 11.7431387 36.1233696 13 40 C16.02934491 40.65772428 16.02934491 40.65772428 19 41 C19 43.97 19 46.94 19 50 C9.29564664 50.45887485 9.29564664 50.45887485 5 48.9375 C1.1423379 45.20038984 -0.15761603 40.7685847 -0.34057617 35.53344727 C-0.34010737 33.87769095 -0.32352723 32.22188062 -0.29296875 30.56640625 C-0.28872391 29.68846909 -0.28447906 28.81053192 -0.28010559 27.9059906 C-0.2634229 25.1245042 -0.22579085 22.34376436 -0.1875 19.5625 C-0.17243968 17.66732823 -0.15875364 15.77214502 -0.14648438 13.87695312 C-0.1135536 9.25101803 -0.06184428 4.62563523 0 0 Z " fill="#F69123" transform="translate(687,759)"/>
<path d="M0 0 C3.63 0 7.26 0 11 0 C11.02505615 1.14065918 11.0501123 2.28131836 11.07592773 3.45654297 C11.16994293 7.67964341 11.27017787 11.90257709 11.37231445 16.12548828 C11.41568565 17.95487575 11.45735911 19.78430427 11.49731445 21.61376953 C11.55496418 24.24003486 11.61867365 26.8660931 11.68359375 29.4921875 C11.70030624 30.31306854 11.71701874 31.13394958 11.73423767 31.97970581 C11.7431387 36.1233696 11.7431387 36.1233696 13 40 C16.02934491 40.65772428 16.02934491 40.65772428 19 41 C19 43.97 19 46.94 19 50 C9.29564664 50.45887485 9.29564664 50.45887485 5 48.9375 C1.1423379 45.20038984 -0.15761603 40.7685847 -0.34057617 35.53344727 C-0.34010737 33.87769095 -0.32352723 32.22188062 -0.29296875 30.56640625 C-0.28872391 29.68846909 -0.28447906 28.81053192 -0.28010559 27.9059906 C-0.2634229 25.1245042 -0.22579085 22.34376436 -0.1875 19.5625 C-0.17243968 17.66732823 -0.15875364 15.77214502 -0.14648438 13.87695312 C-0.1135536 9.25101803 -0.06184428 4.62563523 0 0 Z " fill="#F69123" transform="translate(503,759)"/>
</svg>
