<?xml version="1.0" encoding="UTF-8"?>
<svg version="1.1" xmlns="http://www.w3.org/2000/svg" width="500" height="500">
<path d="M0 0 C165 0 330 0 500 0 C500 165 500 330 500 500 C335 500 170 500 0 500 C0 335 0 170 0 0 Z " fill="#FEFEFE" transform="translate(0,0)"/>
<path d="M0 0 C3.64576392 -0.05878077 7.29140352 -0.0938558 10.9375 -0.125 C11.95908203 -0.14175781 12.98066406 -0.15851563 14.03320312 -0.17578125 C22.77822833 -0.23166001 30.12785918 0.80833733 38.0625 4.625 C39.47208984 5.29402344 39.47208984 5.29402344 40.91015625 5.9765625 C41.94462891 6.48316406 41.94462891 6.48316406 43 7 C41.33333333 13.66666667 39.66666667 20.33333333 38 27 C40.31 27.99 42.62 28.98 45 30 C45.11214844 29.49984375 45.22429687 28.9996875 45.33984375 28.484375 C46.2599223 25.02183089 47.41759359 21.64302797 48.5625 18.25 C48.79646484 17.55261719 49.03042969 16.85523438 49.27148438 16.13671875 C49.84629379 14.4240213 50.42296275 12.71194814 51 11 C63.41417077 12.56186964 73.49562453 18.55585311 81.5625 28 C83 31 83 31 82.41015625 33.64453125 C80.61051075 37.92679022 78.32778362 41.7511077 75.875 45.6875 C75.38217529 46.48478516 74.88935059 47.28207031 74.3815918 48.10351562 C70.5261271 54.28228148 66.45685282 60.23666849 62 66 C61.39027344 66.80179687 60.78054688 67.60359375 60.15234375 68.4296875 C53.38702516 77.12596971 45.84431147 85.26775012 38 93 C41.30742561 94.6537128 43.3238816 94.53363009 47 94 C50.06531591 91.68598701 52.49284819 88.89593479 55 86 C55.57621094 85.36449219 56.15242188 84.72898437 56.74609375 84.07421875 C58.53458418 82.07920518 60.26867247 80.04475752 62 78 C62.61875 77.29359375 63.2375 76.5871875 63.875 75.859375 C73.15328491 64.96441924 81.07052351 52.89421474 89 41 C95.4070942 42.80199524 100.43372499 47.60164139 104 53.0625 C105.18535659 56.54448498 105.72809759 58.35951207 105 62 C102.93376762 64.92563877 100.47484088 67.41964264 98 70 C96.14973399 72.16851177 94.31443486 74.34895623 92.48046875 76.53125 C91 78 91 78 89 78 C88.73719238 78.5887793 88.47438477 79.17755859 88.20361328 79.78417969 C86.94383819 82.10339241 85.61995979 83.60949403 83.7421875 85.453125 C83.11699219 86.071875 82.49179687 86.690625 81.84765625 87.328125 C80.87119141 88.27945313 80.87119141 88.27945313 79.875 89.25 C79.21628906 89.8996875 78.55757812 90.549375 77.87890625 91.21875 C76.25703357 92.81711727 74.6306719 94.41061897 73 96 C83.23047834 94.79827457 91.32225625 92.59854436 100 87 C97.67225249 93.97130538 92.52603567 97.20317086 86.1484375 100.453125 C78.96862065 103.47046575 71.95798612 104.74141464 64.31616211 105.84130859 C59.41053551 106.6026442 55.91598123 107.64898925 51.8984375 110.67578125 C42.4573814 117.26120927 27.46231715 121.94098157 16 123 C13.71875 122.54296875 13.71875 122.54296875 12 122 C18.96901891 116.62450675 25.94216182 111.25878139 33 106 C29.51305127 104.72828929 26.68070831 104.4604676 23 105 C19.85761417 106.8668375 17.11610627 108.90051381 14.26269531 111.16625977 C8.81754218 115.48142797 3.14494465 119.17756209 -2.8125 122.75 C-4.13000244 123.55570435 -4.13000244 123.55570435 -5.47412109 124.37768555 C-6.29348145 124.86664307 -7.1128418 125.35560059 -7.95703125 125.859375 C-8.68897705 126.29733398 -9.42092285 126.73529297 -10.17504883 127.18652344 C-11.07839966 127.58919434 -11.07839966 127.58919434 -12 128 C-12.99 127.505 -12.99 127.505 -14 127 C-13.52691406 126.41734375 -13.05382812 125.8346875 -12.56640625 125.234375 C-7.21717142 118.60257509 -2.08289048 111.83733986 3 105 C3.99929083 103.66613508 4.9989898 102.33257509 6 101 C3.03 100.01 3.03 100.01 0 99 C-0.38784668 99.45640869 -0.77569336 99.91281738 -1.17529297 100.38305664 C-6.26643086 106.29480074 -11.63990689 111.89164146 -17.125 117.4375 C-18.00542969 118.34693359 -18.88585937 119.25636719 -19.79296875 120.19335938 C-20.64761719 121.05638672 -21.50226563 121.91941406 -22.3828125 122.80859375 C-23.53354248 123.98119751 -23.53354248 123.98119751 -24.70751953 125.17749023 C-27.20662565 127.16426629 -28.86026917 127.66204046 -32 128 C-28.79459417 118.82995623 -25.54090318 109.67959224 -22.1875 100.5625 C-21.88577881 99.74031982 -21.58405762 98.91813965 -21.27319336 98.07104492 C-20.99096924 97.30638916 -20.70874512 96.5417334 -20.41796875 95.75390625 C-20.16813232 95.07658447 -19.9182959 94.3992627 -19.66088867 93.70141602 C-19 92 -19 92 -18 90 C-18.87140625 89.74347656 -19.7428125 89.48695313 -20.640625 89.22265625 C-34.46475758 84.19131497 -46.61626935 72.33179979 -53.875 59.75 C-55.74292319 53.52358936 -56.52832181 46.21437644 -53.5625 40.1875 C-48.39831105 32.75831589 -40.39117701 28.68517664 -32 26 C-31.11957031 25.7009375 -30.23914063 25.401875 -29.33203125 25.09375 C-20.28239476 22.39758244 -11.34097993 22.7197706 -2 23 C-1.90912109 21.26363281 -1.90912109 21.26363281 -1.81640625 19.4921875 C-1.73194498 17.95311543 -1.64729982 16.41405345 -1.5625 14.875 C-1.52318359 14.11445313 -1.48386719 13.35390625 -1.44335938 12.5703125 C-1.20490998 8.31490797 -0.79769763 4.19629174 0 0 Z " fill="#EB212A" transform="translate(234,178)"/>
<path d="M0 0 C3.64576392 -0.05878077 7.29140352 -0.0938558 10.9375 -0.125 C11.95908203 -0.14175781 12.98066406 -0.15851563 14.03320312 -0.17578125 C22.77822833 -0.23166001 30.12785918 0.80833733 38.0625 4.625 C39.47208984 5.29402344 39.47208984 5.29402344 40.91015625 5.9765625 C41.59980469 6.31429687 42.28945313 6.65203125 43 7 C41.33333333 13.66666667 39.66666667 20.33333333 38 27 C40.31 27.99 42.62 28.98 45 30 C45.11214844 29.49984375 45.22429687 28.9996875 45.33984375 28.484375 C46.2599223 25.02183089 47.41759359 21.64302797 48.5625 18.25 C48.79646484 17.55261719 49.03042969 16.85523438 49.27148438 16.13671875 C49.84629379 14.4240213 50.42296275 12.71194814 51 11 C63.41417077 12.56186964 73.49562453 18.55585311 81.5625 28 C83 31 83 31 82.41015625 33.64453125 C80.61051075 37.92679022 78.32778362 41.7511077 75.875 45.6875 C75.38217529 46.48478516 74.88935059 47.28207031 74.3815918 48.10351562 C70.5261271 54.28228148 66.45685282 60.23666849 62 66 C61.39027344 66.80179687 60.78054688 67.60359375 60.15234375 68.4296875 C54.94072825 75.12880722 49.2517424 81.39473951 43.39038086 87.52807617 C42.03769395 88.96009538 40.73274302 90.43673816 39.4296875 91.9140625 C37 94 37 94 34.67578125 94.19140625 C33.89589844 93.98386719 33.11601562 93.77632813 32.3125 93.5625 C31.45527344 93.33949219 30.59804688 93.11648438 29.71484375 92.88671875 C25.38230623 91.47163096 21.17355926 89.82926214 17 88 C17.64063787 83.79909594 19.97918935 80.53114827 22.1875 77 C28.36478503 66.88749223 33.30531283 56.53948506 37.609375 45.515625 C39.28410438 41.2817586 41.11075974 37.14179596 43 33 C40.69 32.67 38.38 32.34 36 32 C35.86851562 32.71285156 35.73703125 33.42570312 35.6015625 34.16015625 C33.55270191 43.83237473 29.48147265 52.467635 24.93212891 61.18701172 C23.98422628 63.03067984 23.07156205 64.88815789 22.16796875 66.75390625 C19.19547329 72.87573574 16.21570888 78.63455233 12 84 C3.86974765 82.85530743 -4.35853191 76.88618925 -9.8828125 70.92578125 C-12.15666469 67.0061689 -10.99311408 63.21032797 -10 59 C-9.79503906 58.06671875 -9.59007812 57.1334375 -9.37890625 56.171875 C-8.89397582 54.03489345 -8.39538968 51.90098652 -7.88671875 49.76953125 C-4.01105882 33.29370822 -1.72390196 16.83386289 0 0 Z " fill="#244092" transform="translate(234,178)"/>
<path d="M0 0 C6.60538067 4.64363227 10.70589813 9.87646121 12.828125 17.7109375 C13.74221421 29.27357241 13.28479986 37.83117196 5.703125 46.9609375 C-0.69347437 53.63475707 -5.87857029 55.86384552 -15.109375 56.2734375 C-23.86030223 55.98111127 -30.02643475 53.32503924 -36.046875 46.9609375 C-43.06444335 38.0189296 -44.2220016 30.04462096 -43.171875 18.7109375 C-42.521459 15.84410391 -41.71416564 14.31687686 -40.171875 11.7109375 C-39.84316406 11.05867188 -39.51445312 10.40640625 -39.17578125 9.734375 C-35.42165296 2.7976812 -29.87149078 -0.86114062 -22.609375 -3.6640625 C-14.27792719 -5.17887119 -7.33225501 -4.35187797 0 0 Z " fill="#244092" transform="translate(277.171875,110.2890625)"/>
<path d="M0 0 C6.09196657 3.29981522 10.79418903 8.3825671 13 15 C13.14648082 17.26763574 13.2209626 19.54032366 13.25 21.8125 C13.27578125 23.01519531 13.3015625 24.21789062 13.328125 25.45703125 C12.7297178 31.91840426 9.40511713 36.39465027 5 41 C-0.38575882 44.90731522 -5.32333638 46.26203546 -12 46 C-18.47997302 44.7040054 -23.36948315 41.25517784 -27.48046875 36.16796875 C-31.87850914 29.52779012 -31.96961303 22.74775692 -31 15 C-29.30438662 8.70628212 -25.31462145 4.59156524 -20 1 C-13.07954005 -2.70738926 -7.24047501 -3.0810532 0 0 Z " fill="#254092" transform="translate(331,143)"/>
<path d="M0 0 C6.4070942 1.80199524 11.43372499 6.60164139 15 12.0625 C16.18535659 15.54448498 16.72809759 17.35951207 16 21 C13.93376762 23.92563877 11.47484088 26.41964264 9 29 C7.14973399 31.16851177 5.31443486 33.34895623 3.48046875 35.53125 C2 37 2 37 0 37 C-0.26425781 37.5887793 -0.52851563 38.17755859 -0.80078125 38.78417969 C-2.04368944 41.08072584 -3.35006481 42.60833166 -5.1875 44.453125 C-6.11175781 45.38125 -6.11175781 45.38125 -7.0546875 46.328125 C-7.69664062 46.96234375 -8.33859375 47.5965625 -9 48.25 C-9.96292969 49.22453125 -9.96292969 49.22453125 -10.9453125 50.21875 C-11.56148438 50.83234375 -12.17765625 51.4459375 -12.8125 52.078125 C-13.65748047 52.91972168 -13.65748047 52.91972168 -14.51953125 53.77832031 C-16 55 -16 55 -18 55 C-18 55.66 -18 56.32 -18 57 C-26.5511272 57.27733386 -34.58481953 56.52016163 -43 55 C-42.61328125 54.55269531 -42.2265625 54.10539062 -41.828125 53.64453125 C-39.48222173 50.92119305 -37.15865263 48.20192152 -34.9375 45.375 C-33 43 -33 43 -30.6484375 40.65625 C-18.64636887 28.61877704 -9.3901148 14.0851722 0 0 Z " fill="#254092" transform="translate(323,219)"/>
<path d="M0 0 C5.46311765 2.16849474 9.63064175 5.57022069 12 11 C12.74349204 16.63040323 12.801592 21.33743881 10.3125 26.5 C3.65327311 33.6991642 3.65327311 33.6991642 -1.1015625 34.23828125 C-7.29284715 34.42037786 -11.94161768 33.73829641 -17 30 C-20.83519944 25.86978521 -21.76465229 21.94041434 -22.09375 16.4609375 C-21.92636296 12.06702759 -20.65720629 8.69784622 -17.56640625 5.53125 C-11.67494019 0.47722425 -7.64577513 -1.0987262 0 0 Z " fill="#254193" transform="translate(355,197)"/>
<path d="M0 0 C1.32 0 2.64 0 4 0 C6.97 5.28 9.94 10.56 13 16 C13.66 16 14.32 16 15 16 C17.97 10.72 20.94 5.44 24 0 C26.475 0.495 26.475 0.495 29 1 C29 10.57 29 20.14 29 30 C27.68 30.33 26.36 30.66 25 31 C22.94077598 28.94077598 23.58572421 24.78291876 23.4375 21.9375 C23.39431641 21.17888672 23.35113281 20.42027344 23.30664062 19.63867188 C23.20026367 17.75934562 23.09960066 15.87969756 23 14 C22.54109375 14.7940625 22.0821875 15.588125 21.609375 16.40625 C20.99578125 17.4271875 20.3821875 18.448125 19.75 19.5 C19.14671875 20.5209375 18.5434375 21.541875 17.921875 22.59375 C17.28765625 23.3878125 16.6534375 24.181875 16 25 C14.68 25 13.36 25 12 25 C10.33203125 22.8828125 10.33203125 22.8828125 8.8125 20.125 C8.04873047 18.76761719 8.04873047 18.76761719 7.26953125 17.3828125 C6.49594252 15.93084595 5.73575083 14.47150165 5 13 C4.67 18.61 4.34 24.22 4 30 C2.68 30 1.36 30 0 30 C-1.83034055 28.16965945 -1.13042797 25.26788008 -1.1328125 22.8125 C-1.13410156 21.55695313 -1.13539063 20.30140625 -1.13671875 19.0078125 C-1.13462402 18.35071289 -1.1325293 17.69361328 -1.13037109 17.01660156 C-1.12502234 15.00838665 -1.13031691 13.00039541 -1.13671875 10.9921875 C-1.13542969 9.73664063 -1.13414062 8.48109375 -1.1328125 7.1875 C-1.13112061 5.44533203 -1.13112061 5.44533203 -1.12939453 3.66796875 C-1 1 -1 1 0 0 Z " fill="#0A0A0A" transform="translate(231,317)"/>
<path d="M0 0 C8.00912188 0.08164242 8.00912188 0.08164242 11.1875 2.375 C13.5530988 5.71466889 14.08437196 7.43629015 13.78125 11.4375 C13.04634184 14.4751204 11.55472119 16.26467417 9.3125 18.375 C8.6525 18.375 7.9925 18.375 7.3125 18.375 C9.6225 21.345 11.9325 24.315 14.3125 27.375 C13.6525 28.695 12.9925 30.015 12.3125 31.375 C7.74096126 29.54036932 5.85152457 26.28838717 3.09375 22.37109375 C1.28753476 19.97042145 1.28753476 19.97042145 -2.6875 19.375 C-2.6875 23.005 -2.6875 26.635 -2.6875 30.375 C-4.0075 30.375 -5.3275 30.375 -6.6875 30.375 C-8.51784055 28.54465945 -7.81792797 25.64288008 -7.8203125 23.1875 C-7.82160156 21.93195313 -7.82289063 20.67640625 -7.82421875 19.3828125 C-7.82212402 18.72571289 -7.8200293 18.06861328 -7.81787109 17.39160156 C-7.81252234 15.38338665 -7.81781691 13.37539541 -7.82421875 11.3671875 C-7.82292969 10.11164063 -7.82164062 8.85609375 -7.8203125 7.5625 C-7.81862061 5.82033203 -7.81862061 5.82033203 -7.81689453 4.04296875 C-7.57025469 -1.04246558 -4.46872178 0.12140728 0 0 Z " fill="#060606" transform="translate(183.6875,316.625)"/>
<path d="M0 0 C2.52096751 0.27992895 3.66320585 0.58375994 5.28027344 2.58227539 C5.63637695 3.24735107 5.99248047 3.91242676 6.359375 4.59765625 C6.75253906 5.31630859 7.14570313 6.03496094 7.55078125 6.77539062 C7.94652344 7.53013672 8.34226563 8.28488281 8.75 9.0625 C9.16121094 9.82111328 9.57242188 10.57972656 9.99609375 11.36132812 C11.00926383 13.23451468 12.0062056 15.11646233 13 17 C15.39497762 14.69342069 16.89793029 12.58299296 18.4375 9.625 C20.33263223 6.1046483 22.36279465 3.02790244 25 0 C25.99 0.33 26.98 0.66 28 1 C28 10.57 28 20.14 28 30 C26.68 30.33 25.36 30.66 24 31 C22.5192152 28.0384304 22.64685963 25.16493705 22.4375 21.875 C22.31181641 19.95300781 22.31181641 19.95300781 22.18359375 17.9921875 C22.12300781 17.00476563 22.06242187 16.01734375 22 15 C21.41992188 16.06541016 21.41992188 16.06541016 20.828125 17.15234375 C20.30734375 18.07144531 19.7865625 18.99054688 19.25 19.9375 C18.73953125 20.85402344 18.2290625 21.77054687 17.703125 22.71484375 C16 25 16 25 12 26 C9.69 22.37 7.38 18.74 5 15 C4.67 19.95 4.34 24.9 4 30 C2.68 30.33 1.36 30.66 0 31 C-1.85714057 29.14285943 -1.13048681 26.07492951 -1.1328125 23.59375 C-1.13410156 22.29308594 -1.13539063 20.99242187 -1.13671875 19.65234375 C-1.13462402 18.97155762 -1.1325293 18.29077148 -1.13037109 17.58935547 C-1.1250224 15.50871485 -1.1303168 13.42829011 -1.13671875 11.34765625 C-1.13542969 10.04699219 -1.13414062 8.74632812 -1.1328125 7.40625 C-1.13168457 6.20291016 -1.13055664 4.99957031 -1.12939453 3.75976562 C-1 1 -1 1 0 0 Z " fill="#EC252D" transform="translate(199,354)"/>
<path d="M0 0 C4.53489335 1.47077622 6.11004087 5.05296427 8.25 9 C8.61351562 9.64195312 8.97703125 10.28390625 9.3515625 10.9453125 C12 15.70453477 12 15.70453477 12 18 C15.78638479 14.81519037 17.71500285 10.2351968 19.95117188 5.91796875 C22.50466161 1.22427086 22.50466161 1.22427086 25.19140625 0.0078125 C25.78824219 0.00523437 26.38507813 0.00265625 27 0 C28 1 28 1 28.11352539 3.77563477 C28.10828857 4.98533936 28.10305176 6.19504395 28.09765625 7.44140625 C28.09443359 8.74658203 28.09121094 10.05175781 28.08789062 11.39648438 C28.07953401 12.7851569 28.07106905 14.17382877 28.0625 15.5625 C28.05748666 16.95507656 28.05292347 18.34765481 28.04882812 19.74023438 C28.03699434 23.1601987 28.0205088 26.58007844 28 30 C26.0625 30.5625 26.0625 30.5625 24 31 C22.00383446 29.00383446 22.59016573 25.18298037 22.4375 22.4375 C22.39431641 21.72658203 22.35113281 21.01566406 22.30664062 20.28320312 C22.20028223 18.52238088 22.09961154 16.7612168 22 15 C19.69 18.63 17.38 22.26 15 26 C11 25 11 25 9.296875 22.71484375 C8.78640625 21.79832031 8.2759375 20.88179688 7.75 19.9375 C7.22921875 19.01839844 6.7084375 18.09929687 6.171875 17.15234375 C5.78515625 16.44207031 5.3984375 15.73179687 5 15 C4.97421875 15.98742187 4.9484375 16.97484375 4.921875 17.9921875 C4.86515625 19.27351563 4.8084375 20.55484375 4.75 21.875 C4.70359375 23.15117187 4.6571875 24.42734375 4.609375 25.7421875 C4 29 4 29 1.953125 30.4453125 C1.30859375 30.62835938 0.6640625 30.81140625 0 31 C-1.85714057 29.14285943 -1.13048681 26.07492951 -1.1328125 23.59375 C-1.13410156 22.29308594 -1.13539063 20.99242187 -1.13671875 19.65234375 C-1.13462402 18.97155762 -1.1325293 18.29077148 -1.13037109 17.58935547 C-1.1250224 15.50871485 -1.1303168 13.42829011 -1.13671875 11.34765625 C-1.13542969 10.04699219 -1.13414062 8.74632812 -1.1328125 7.40625 C-1.13168457 6.20291016 -1.13055664 4.99957031 -1.12939453 3.75976562 C-1 1 -1 1 0 0 Z " fill="#EB252D" transform="translate(245,354)"/>
<path d="M0 0 C2.81599574 1.11684242 5.6276201 2.24296206 8.4375 3.375 C9.23994141 3.69210937 10.04238281 4.00921875 10.86914062 4.3359375 C11.63291016 4.6453125 12.39667969 4.9546875 13.18359375 5.2734375 C13.89056396 5.55622559 14.59753418 5.83901367 15.32592773 6.13037109 C17 7 17 7 18 9 C12.55395668 15.40877346 6.78776045 21.45923629 0.875 27.4375 C-0.44564453 28.80165039 -0.44564453 28.80165039 -1.79296875 30.19335938 C-2.64761719 31.05638672 -3.50226563 31.91941406 -4.3828125 32.80859375 C-5.14996582 33.59032959 -5.91711914 34.37206543 -6.70751953 35.17749023 C-9.20662565 37.16426629 -10.86026917 37.66204046 -14 38 C-10.79459417 28.82995623 -7.54090318 19.67959224 -4.1875 10.5625 C-3.88577881 9.74031982 -3.58405762 8.91813965 -3.27319336 8.07104492 C-2.99096924 7.30638916 -2.70874512 6.5417334 -2.41796875 5.75390625 C-2.04321411 4.73792358 -2.04321411 4.73792358 -1.66088867 3.70141602 C-1 2 -1 2 0 0 Z " fill="#274293" transform="translate(216,268)"/>
<path d="M0 0 C0.72509766 -0.02900391 1.45019531 -0.05800781 2.19726562 -0.08789062 C5.72069016 -0.12979778 7.76531965 0.00191509 10.640625 2.1171875 C12.82245657 5.21362524 13.12146824 7.54868942 13.1875 11.3125 C11.96545248 14.20682307 11.04634608 15.77872255 8.37109375 17.44140625 C5.89024716 18.43108208 4.09623672 18.51569814 1.4375 18.4375 C0.63828125 18.41945313 -0.1609375 18.40140625 -0.984375 18.3828125 C-1.58765625 18.35960937 -2.1909375 18.33640625 -2.8125 18.3125 C-2.80089844 19.01117188 -2.78929687 19.70984375 -2.77734375 20.4296875 C-2.76380859 21.79480469 -2.76380859 21.79480469 -2.75 23.1875 C-2.73839844 24.09242188 -2.72679687 24.99734375 -2.71484375 25.9296875 C-2.8125 28.3125 -2.8125 28.3125 -3.8125 30.3125 C-5.1325 30.3125 -6.4525 30.3125 -7.8125 30.3125 C-9.1892748 27.5589504 -8.94219689 25.32409591 -8.9453125 22.24609375 C-8.94660156 21.03888672 -8.94789063 19.83167969 -8.94921875 18.58789062 C-8.94341797 16.68813477 -8.94341797 16.68813477 -8.9375 14.75 C-8.94136719 13.47962891 -8.94523437 12.20925781 -8.94921875 10.90039062 C-8.94792969 9.69447266 -8.94664062 8.48855469 -8.9453125 7.24609375 C-8.94418457 6.13290771 -8.94305664 5.01972168 -8.94189453 3.87280273 C-8.67467365 -1.41464147 -4.25386919 0.05582506 0 0 Z " fill="#EB272F" transform="translate(286.8125,354.6875)"/>
<path d="M0 0 C3.41801977 1.22293748 4.99107704 2.96526438 7.015625 5.9140625 C7.54414063 6.67460937 8.07265625 7.43515625 8.6171875 8.21875 C9.15601563 9.0128125 9.69484375 9.806875 10.25 10.625 C10.80429687 11.42679687 11.35859375 12.22859375 11.9296875 13.0546875 C13.29432059 15.03105266 14.64821196 17.014827 16 19 C16.33 13.06 16.66 7.12 17 1 C17.99 0.67 18.98 0.34 20 0 C20.66 0.33 21.32 0.66 22 1 C22 10.24 22 19.48 22 29 C20.02 29.99 20.02 29.99 18 31 C14.45949657 26.86207592 11.24814602 22.6261893 8.1875 18.125 C6.1146875 15.093125 6.1146875 15.093125 4 12 C3.67 17.94 3.34 23.88 3 30 C1.68 30.33 0.36 30.66 -1 31 C-2 30 -2 30 -2.11352539 27.22436523 C-2.10828857 26.01466064 -2.10305176 24.80495605 -2.09765625 23.55859375 C-2.09443359 22.25341797 -2.09121094 20.94824219 -2.08789062 19.60351562 C-2.07953401 18.2148431 -2.07106905 16.82617123 -2.0625 15.4375 C-2.05748666 14.04492344 -2.05292347 12.65234519 -2.04882812 11.25976562 C-2.03699434 7.8398013 -2.0205088 4.41992156 -2 1 C-1.34 0.67 -0.68 0.34 0 0 Z " fill="#0B0B0B" transform="translate(374,354)"/>
<path d="M0 0 C2.62150832 0.27833889 3.74512247 0.72572266 5.55566406 2.67407227 C6.03745117 3.38104248 6.51923828 4.0880127 7.015625 4.81640625 C7.54414063 5.58017578 8.07265625 6.34394531 8.6171875 7.13085938 C9.15601563 7.93330078 9.69484375 8.73574219 10.25 9.5625 C10.80429687 10.36880859 11.35859375 11.17511719 11.9296875 12.00585938 C13.29659296 13.99729923 14.65272637 15.99524923 16 18 C16.02578125 16.86820312 16.0515625 15.73640625 16.078125 14.5703125 C16.13439626 13.08850257 16.19174382 11.60673323 16.25 10.125 C16.27126953 9.00544922 16.27126953 9.00544922 16.29296875 7.86328125 C16.390625 5.6953125 16.390625 5.6953125 17 2 C19.046875 0.4921875 19.046875 0.4921875 21 0 C22 1 22 1 22.11352539 3.77563477 C22.10828857 4.98533936 22.10305176 6.19504395 22.09765625 7.44140625 C22.09443359 8.74658203 22.09121094 10.05175781 22.08789062 11.39648438 C22.07953401 12.7851569 22.07106905 14.17382877 22.0625 15.5625 C22.05748666 16.95507656 22.05292347 18.34765481 22.04882812 19.74023438 C22.03699434 23.1601987 22.0205088 26.58007844 22 30 C20.68 30.33 19.36 30.66 18 31 C13.71 25.06 9.42 19.12 5 13 C4.67 18.61 4.34 24.22 4 30 C2.68 30.33 1.36 30.66 0 31 C-1.85714057 29.14285943 -1.13048681 26.07492951 -1.1328125 23.59375 C-1.13410156 22.29308594 -1.13539063 20.99242187 -1.13671875 19.65234375 C-1.13462402 18.97155762 -1.1325293 18.29077148 -1.13037109 17.58935547 C-1.1250224 15.50871485 -1.1303168 13.42829011 -1.13671875 11.34765625 C-1.13542969 10.04699219 -1.13414062 8.74632812 -1.1328125 7.40625 C-1.13168457 6.20291016 -1.13055664 4.99957031 -1.12939453 3.75976562 C-1 1 -1 1 0 0 Z " fill="#EB242C" transform="translate(316,354)"/>
<path d="M0 0 C2.56428515 -0.13559675 5.12135216 -0.23433188 7.6875 -0.3125 C8.40873047 -0.35439453 9.12996094 -0.39628906 9.87304688 -0.43945312 C14.00302733 -0.53374492 15.57747714 -0.31210938 19.01953125 2.23046875 C21.13897992 5.19435259 21.57941358 6.11230519 21 9.625 C20.896875 10.38039063 20.79375 11.13578125 20.6875 11.9140625 C19.8912505 14.32995588 18.94901992 15.39637602 17 17 C13.22371219 18.53848762 9.00460581 18.06674343 5 18 C5 21.63 5 25.26 5 29 C3.68 29.33 2.36 29.66 1 30 C0 29 0 29 -0.11352539 26.22436523 C-0.10828857 25.01466064 -0.10305176 23.80495605 -0.09765625 22.55859375 C-0.09443359 21.25341797 -0.09121094 19.94824219 -0.08789062 18.60351562 C-0.07953401 17.2148431 -0.07106905 15.82617123 -0.0625 14.4375 C-0.05748666 13.04492344 -0.05292347 11.65234519 -0.04882812 10.25976562 C-0.03699434 6.8398013 -0.0205088 3.41992156 0 0 Z " fill="#EC252E" transform="translate(149,355)"/>
<path d="M0 0 C1.32 0 2.64 0 4 0 C5.82089479 3.64178957 5.05121113 8.00553148 5 12 C9.29 12 13.58 12 18 12 C18 8.37 18 4.74 18 1 C19.32 0.67 20.64 0.34 22 0 C23 1 23 1 23.11352539 3.77563477 C23.10828857 4.98533936 23.10305176 6.19504395 23.09765625 7.44140625 C23.09443359 8.74658203 23.09121094 10.05175781 23.08789062 11.39648438 C23.07953401 12.7851569 23.07106905 14.17382877 23.0625 15.5625 C23.05748666 16.95507656 23.05292347 18.34765481 23.04882812 19.74023438 C23.03699434 23.1601987 23.0205088 26.58007844 23 30 C21.68 30 20.36 30 19 30 C18 29 18 29 17.90234375 26.27734375 C17.93489583 23.18489583 17.96744792 20.09244792 18 17 C13.71 17 9.42 17 5 17 C5 20.96 5 24.92 5 29 C3.02 29.99 3.02 29.99 1 31 C-1 29 -1 29 -1.24291992 26.21850586 C-1.23675659 24.48419312 -1.23675659 24.48419312 -1.23046875 22.71484375 C-1.22853516 21.46251953 -1.22660156 20.21019531 -1.22460938 18.91992188 C-1.21236328 17.60572266 -1.20011719 16.29152344 -1.1875 14.9375 C-1.18685547 13.61943359 -1.18621094 12.30136719 -1.18554688 10.94335938 C-1.14009123 1.14009123 -1.14009123 1.14009123 0 0 Z " fill="#090909" transform="translate(295,317)"/>
<path d="M0 0 C1.88549805 0.0847168 1.88549805 0.0847168 4 1 C5.47973633 3.43676758 5.47973633 3.43676758 6.83203125 6.64453125 C7.31994141 7.79630859 7.80785156 8.94808594 8.31054688 10.13476562 C8.80619141 11.34841797 9.30183594 12.56207031 9.8125 13.8125 C10.32748047 15.01455078 10.84246094 16.21660156 11.37304688 17.45507812 C15.4616187 27.26874518 15.4616187 27.26874518 14 31 C12.1875 30.875 12.1875 30.875 10 30 C9.67 29.01 9.34 28.02 9 27 C7.31727756 23.72182737 7.31727756 23.72182737 4.14453125 23.3828125 C1.08794361 23.14631217 -1.93472391 23.00950473 -5 23 C-5.12375 23.763125 -5.2475 24.52625 -5.375 25.3125 C-6 28 -6 28 -8 31 C-9.32 30.67 -10.64 30.34 -12 30 C-11.43088328 25.80160433 -10.45451706 22.29190181 -8.75 18.41796875 C-8.3065625 17.40412109 -7.863125 16.39027344 -7.40625 15.34570312 C-6.71015625 13.78239258 -6.71015625 13.78239258 -6 12.1875 C-5.5359375 11.12595703 -5.071875 10.06441406 -4.59375 8.97070312 C-1.15221429 1.15221429 -1.15221429 1.15221429 0 0 Z " fill="#090909" transform="translate(354,354)"/>
<path d="M0 0 C1.32 0 2.64 0 4 0 C5.6601996 3.68119495 7.30052283 7.37092665 8.9375 11.0625 C9.40607422 12.10083984 9.87464844 13.13917969 10.35742188 14.20898438 C12.70015312 19.51805158 14.6124148 24.18622207 15 30 C13.68 30 12.36 30 11 30 C8.82542733 27.12645755 8 25.63563409 8 22 C4.04 22 0.08 22 -4 22 C-4.28875 22.928125 -4.5775 23.85625 -4.875 24.8125 C-6 28 -6 28 -8 31 C-9.32 30.67 -10.64 30.34 -12 30 C-11.35960068 26.18022687 -10.24435165 22.86605825 -8.75 19.296875 C-8.3065625 18.2346875 -7.863125 17.1725 -7.40625 16.078125 C-6.71015625 14.43070312 -6.71015625 14.43070312 -6 12.75 C-5.5359375 11.63625 -5.071875 10.5225 -4.59375 9.375 C-1.13839286 1.13839286 -1.13839286 1.13839286 0 0 Z " fill="#090909" transform="translate(275,317)"/>
<path d="M0 0 C1.32 0.33 2.64 0.66 4 1 C4.33 4.3 4.66 7.6 5 11 C6.0725 9.9275 7.145 8.855 8.25 7.75 C10.83333333 5.16666667 13.41666667 2.58333333 16 0 C16.99 0.33 17.98 0.66 19 1 C18.84595887 6.08335725 15.97931568 8.35754718 12.49609375 11.64453125 C12.00238281 12.09183594 11.50867188 12.53914063 11 13 C14.96739327 19.09675799 14.96739327 19.09675799 19.375 24.875 C21 27 21 27 21 30 C19.68 30.33 18.36 30.66 17 31 C13.29554415 26.69722998 9.62432705 22.37051203 6 18 C4.26043342 19.73956658 4.62809614 22.1936622 4.4375 24.5625 C4.35371094 25.57441406 4.26992187 26.58632813 4.18359375 27.62890625 C4.12300781 28.41136719 4.06242187 29.19382812 4 30 C2.125 30.625 2.125 30.625 0 31 C-2.72234602 28.27765398 -2.25788057 26.77237127 -2.265625 22.96875 C-2.26820312 21.76605469 -2.27078125 20.56335938 -2.2734375 19.32421875 C-2.26570313 18.06222656 -2.25796875 16.80023438 -2.25 15.5 C-2.25773437 14.23800781 -2.26546875 12.97601563 -2.2734375 11.67578125 C-2.27085938 10.47308594 -2.26828125 9.27039063 -2.265625 8.03125 C-2.26336914 6.92330078 -2.26111328 5.81535156 -2.25878906 4.67382812 C-2 2 -2 2 0 0 Z " fill="#121212" transform="translate(100,354)"/>
<path d="M0 0 C3.0625 2.0625 3.0625 2.0625 5 5 C5.70527547 9.93692832 5.54461594 11.94966926 3.25 16.375 C0.2246387 19.90458818 -1.35008813 20.82447746 -5.9375 21.3125 C-9.45778025 20.95328773 -11.21797817 20.16379476 -14 18 C-16.53164517 13.83388918 -16.85645872 9.7571618 -16 5 C-11.15583991 -1.11893907 -7.31526324 -1.80359076 0 0 Z " fill="#EB232C" transform="translate(353,243)"/>
<path d="M0 0 C2.31 0.33 4.62 0.66 7 1 C1.5520859 18.62560443 -6.26636681 42.30052594 -20 55 C-21.32 54.34 -22.64 53.68 -24 53 C-22.51361184 48.93318163 -20.53273134 45.39951742 -18.3125 41.6875 C-13.85808043 34.07293309 -10.35538851 26.14752583 -7 18 C-6.39671875 16.53820312 -6.39671875 16.53820312 -5.78125 15.046875 C-3.7640444 10.06498843 -1.86666127 5.03998542 0 0 Z " fill="#F7F8F9" transform="translate(270,210)"/>
<path d="M0 0 C2.0625 0.4375 2.0625 0.4375 4 1 C4.01981934 1.65597168 4.03963867 2.31194336 4.06005859 2.98779297 C4.15512507 5.95061069 4.26487752 8.91270532 4.375 11.875 C4.4059375 12.90753906 4.436875 13.94007813 4.46875 15.00390625 C4.50742188 15.99003906 4.54609375 16.97617187 4.5859375 17.9921875 C4.6173584 18.90339355 4.6487793 19.81459961 4.68115234 20.75341797 C4.79882511 23.19931186 4.79882511 23.19931186 7 25 C10.5 25.41666667 10.5 25.41666667 14 25 C16.15749784 21.76375324 16.28360488 20.65605934 16.4140625 16.89453125 C16.45273438 15.91162109 16.49140625 14.92871094 16.53125 13.91601562 C16.5621875 12.89185547 16.593125 11.86769531 16.625 10.8125 C16.66367188 9.77673828 16.70234375 8.74097656 16.7421875 7.67382812 C16.83648296 5.11606378 16.92208202 2.55830713 17 0 C19.475 0.495 19.475 0.495 22 1 C22.1164862 4.72890255 22.18734576 8.45733514 22.25 12.1875 C22.30027344 13.77014648 22.30027344 13.77014648 22.3515625 15.38476562 C22.45025414 23.20607842 22.45025414 23.20607842 20.234375 27.11328125 C17.30924363 29.58327854 15.46055551 30.90737941 11.59765625 31.15234375 C10.76105469 31.08144531 9.92445313 31.01054687 9.0625 30.9375 C8.22847656 30.88464844 7.39445313 30.83179688 6.53515625 30.77734375 C2.6686909 29.59178658 1.313331 28.36149513 -1 25 C-1.6344343 20.89984995 -1.51583188 16.88754347 -1.375 12.75 C-1.36082031 11.63625 -1.34664062 10.5225 -1.33203125 9.375 C-1.18216227 1.18216227 -1.18216227 1.18216227 0 0 Z " fill="#050505" transform="translate(203,317)"/>
<path d="M0 0 C1.18613892 0.00785522 1.18613892 0.00785522 2.39624023 0.01586914 C3.67724609 0.02070313 3.67724609 0.02070313 4.98413086 0.02563477 C5.88196289 0.03401367 6.77979492 0.04239258 7.70483398 0.05102539 C8.6065332 0.05553711 9.50823242 0.06004883 10.43725586 0.06469727 C12.67234712 0.07652315 14.90730835 0.09300319 17.14233398 0.11352539 C16.81233398 1.43352539 16.48233398 2.75352539 16.14233398 4.11352539 C11.85233398 4.11352539 7.56233398 4.11352539 3.14233398 4.11352539 C3.14233398 6.75352539 3.14233398 9.39352539 3.14233398 12.11352539 C6.44233398 12.11352539 9.74233398 12.11352539 13.14233398 12.11352539 C13.47233398 13.10352539 13.80233398 14.09352539 14.14233398 15.11352539 C12.14233398 17.11352539 12.14233398 17.11352539 9.97827148 17.30883789 C9.16616211 17.28563477 8.35405273 17.26243164 7.51733398 17.23852539 C6.70006836 17.22047852 5.88280273 17.20243164 5.04077148 17.18383789 C4.41428711 17.16063477 3.78780273 17.13743164 3.14233398 17.11352539 C3.14233398 19.75352539 3.14233398 22.39352539 3.14233398 25.11352539 C7.76233398 25.11352539 12.38233398 25.11352539 17.14233398 25.11352539 C17.14233398 26.43352539 17.14233398 27.75352539 17.14233398 29.11352539 C13.99651975 29.14241053 10.8507393 29.16028462 7.70483398 29.17602539 C6.80700195 29.1844043 5.90916992 29.1927832 4.98413086 29.20141602 C3.703125 29.20625 3.703125 29.20625 2.39624023 29.21118164 C1.60548096 29.21641846 0.81472168 29.22165527 0 29.22705078 C-1.85766602 29.11352539 -1.85766602 29.11352539 -2.85766602 28.11352539 C-2.95749659 26.12595511 -2.98847355 24.1348502 -2.99047852 22.14477539 C-2.99176758 20.9343457 -2.99305664 19.72391602 -2.99438477 18.47680664 C-2.99051758 17.20192383 -2.98665039 15.92704102 -2.98266602 14.61352539 C-2.9865332 13.33864258 -2.99040039 12.06375977 -2.99438477 10.75024414 C-2.9930957 9.53981445 -2.99180664 8.32938477 -2.99047852 7.08227539 C-2.98935059 5.96272461 -2.98822266 4.84317383 -2.98706055 3.68969727 C-2.81036287 0.17174645 -2.81036287 0.17174645 0 0 Z " fill="#080808" transform="translate(126.857666015625,354.886474609375)"/>
<path d="M0 0 C1.65612305 0.11891602 1.65612305 0.11891602 3.34570312 0.24023438 C6.04750438 0.43906823 8.74157088 0.67202813 11.4375 0.9375 C2.22971359 10.51610272 -17.46160002 16.889428 -30.5625 17.9375 C-32.83203125 17.4765625 -32.83203125 17.4765625 -34.5625 16.9375 C-33.72847656 16.29683594 -32.89445313 15.65617187 -32.03515625 14.99609375 C-30.8984271 14.12240936 -29.76170895 13.24871066 -28.625 12.375 C-28.08037109 11.95669922 -27.53574219 11.53839844 -26.97460938 11.10742188 C-26.41708984 10.67880859 -25.85957031 10.25019531 -25.28515625 9.80859375 C-24.3890564 9.13751587 -24.3890564 9.13751587 -23.47485352 8.45288086 C-21.4961168 6.93086955 -21.4961168 6.93086955 -19.55444336 5.03344727 C-13.19219283 -0.7113056 -8.32161792 -0.82764735 0 0 Z " fill="#294393" transform="translate(280.5625,283.0625)"/>
<path d="M0 0 C6.27 0 12.54 0 19 0 C19 1.32 19 2.64 19 4 C14.38 4 9.76 4 5 4 C5 6.64 5 9.28 5 12 C8.3 12 11.6 12 15 12 C15.33 13.32 15.66 14.64 16 16 C15 17 15 17 12.71484375 17.09765625 C11.34005859 17.08025391 11.34005859 17.08025391 9.9375 17.0625 C9.01839844 17.05347656 8.09929687 17.04445313 7.15234375 17.03515625 C6.44207031 17.02355469 5.73179687 17.01195312 5 17 C5 19.64 5 22.28 5 25 C9.62 25 14.24 25 19 25 C19 26.32 19 27.64 19 29 C12.73 29 6.46 29 0 29 C0 19.43 0 9.86 0 0 Z " fill="#EB212A" transform="translate(174,355)"/>
<path d="M0 0 C5.46864457 1.01591421 10.76390013 2.07091057 16 4 C12.35171295 7.8823281 8.5840435 10.85194328 4.125 13.75 C3.48022705 14.17321533 2.8354541 14.59643066 2.17114258 15.0324707 C-2.61493949 18.15045645 -7.44328078 21.2011089 -12.3125 24.1875 C-13.2722876 24.78546387 -13.2722876 24.78546387 -14.25146484 25.39550781 C-15.79745693 26.32771797 -17.39518688 27.17314927 -19 28 C-19.66 27.67 -20.32 27.34 -21 27 C-20.52691406 26.41734375 -20.05382812 25.8346875 -19.56640625 25.234375 C-14.94217698 19.50141239 -10.46826482 13.67577402 -6.078125 7.76171875 C-4.10002348 5.13292594 -2.06866569 2.55787717 0 0 Z " fill="#2A4494" transform="translate(241,278)"/>
<path d="M0 0 C1.58052011 4.07945055 0.53579314 7.97566761 -0.25 12.125 C-0.45653198 13.25699829 -0.45653198 13.25699829 -0.66723633 14.41186523 C-1.73474362 20.06547588 -3.11483624 25.55842801 -5 31 C-9.03141352 27.66365777 -10.8832982 24.03431139 -12 19 C-12.27304996 13.39197387 -10.60468621 9.26870735 -7 5 C-4.74091828 3.16267818 -2.44412095 1.59807908 0 0 Z " fill="#FAF7F7" transform="translate(228,214)"/>
<path d="M0 0 C2.29104056 0.91641622 3.75057101 1.69118315 5.3125 3.625 C6.51953303 7.79475046 6.02967804 12.12235181 3.9375 15.9375 C0.77346001 17.6726187 -2.42403122 17.70688781 -6 18 C-5.67 17.01 -5.34 16.02 -5 15 C-6.65 14.67 -8.3 14.34 -10 14 C-10 10.7 -10 7.4 -10 4 C-7.36 4 -4.72 4 -2 4 C-2 3.34 -2 2.68 -2 2 C-1.34 2 -0.68 2 0 2 C0 1.34 0 0.68 0 0 Z " fill="#EC2932" transform="translate(294,355)"/>
<path d="M0 0 C1.32 0.66 2.64 1.32 4 2 C4.02891546 6.45831982 4.04676981 10.91661569 4.0625 15.375 C4.07087891 16.64601563 4.07925781 17.91703125 4.08789062 19.2265625 C4.09111328 20.43828125 4.09433594 21.65 4.09765625 22.8984375 C4.10289307 24.01911621 4.10812988 25.13979492 4.11352539 26.29443359 C4 29 4 29 3 31 C1.68 31 0.36 31 -1 31 C-3.23139155 26.5372169 -2.18499699 20.40089668 -2.1875 15.5 C-2.19974609 14.23800781 -2.21199219 12.97601563 -2.22460938 11.67578125 C-2.22654297 10.47308594 -2.22847656 9.27039063 -2.23046875 8.03125 C-2.23457764 6.92330078 -2.23868652 5.81535156 -2.24291992 4.67382812 C-2 2 -2 2 0 0 Z " fill="#EB2C34" transform="translate(306,354)"/>
<path d="M0 0 C1.98 0.495 1.98 0.495 4 1 C4 10.57 4 20.14 4 30 C2.68 30.33 1.36 30.66 0 31 C-1.85714057 29.14285943 -1.13048681 26.07492951 -1.1328125 23.59375 C-1.13410156 22.29308594 -1.13539063 20.99242187 -1.13671875 19.65234375 C-1.13462402 18.97155762 -1.1325293 18.29077148 -1.13037109 17.58935547 C-1.1250224 15.50871485 -1.1303168 13.42829011 -1.13671875 11.34765625 C-1.13542969 10.04699219 -1.13414062 8.74632812 -1.1328125 7.40625 C-1.13168457 6.20291016 -1.13055664 4.99957031 -1.12939453 3.75976562 C-1 1 -1 1 0 0 Z " fill="#EC232C" transform="translate(234,354)"/>
<path d="M0 0 C0 4.07636767 -1.20023635 5.06024816 -4 8 C-9.47321214 12.28776988 -15.31541487 14.3151558 -22 16 C-22.33 13.69 -22.66 11.38 -23 9 C-21.92621094 8.76925781 -20.85242188 8.53851563 -19.74609375 8.30078125 C-9.049477 5.94810089 -9.049477 5.94810089 0 0 Z " fill="#EB2A32" transform="translate(333,265)"/>
<path d="M0 0 C6.8359375 -0.1953125 6.8359375 -0.1953125 9 0 C9.66 0.66 10.32 1.32 11 2 C10.43181818 7.56818182 10.43181818 7.56818182 9 9 C5.99668982 9.14193337 3.00782866 9.04236378 0 9 C0 6.03 0 3.06 0 0 Z " fill="#F0F0F0" transform="translate(181,322)"/>
<path d="M0 0 C6.0546875 -0.1953125 6.0546875 -0.1953125 8 0 C10 2 10 2 10.125 5.125 C10.08375 6.07375 10.0425 7.0225 10 8 C6.78548731 9.60725635 3.56387464 9.05748185 0 9 C0 6.03 0 3.06 0 0 Z " fill="#FDFCFC" transform="translate(154,359)"/>
<path d="M0 0 C6.625 -0.25 6.625 -0.25 10 2 C10.3125 4.5 10.3125 4.5 10 7 C8 9 8 9 6.0546875 9.1953125 C4.03645833 9.13020833 2.01822917 9.06510417 0 9 C0 6.03 0 3.06 0 0 Z " fill="#FDFDFD" transform="translate(284,359)"/>
<path d="M0 0 C1.875 2.0625 1.875 2.0625 3 4 C2.67 4.66 2.34 5.32 2 6 C1.01 6 0.02 6 -1 6 C-1.99 7.485 -1.99 7.485 -3 9 C-3.268125 8.21625 -3.53625 7.4325 -3.8125 6.625 C-4.84814432 3.71885077 -4.84814432 3.71885077 -8 2 C-8 1.34 -8 0.68 -8 0 C-5.03475663 -1.48262169 -3.14877613 -0.83538959 0 0 Z " fill="#EB2F37" transform="translate(167,356)"/>
<path d="M0 0 C2 1 2 1 3.125 3.375 C4 6 4 6 4 9 C1.69 9 -0.62 9 -3 9 C-2.01 6.03 -1.02 3.06 0 0 Z " fill="#DEDEDE" transform="translate(276,326)"/>
<path d="M0 0 C2.50298434 2.93828597 3.46930939 5.17902761 4 9 C1.69 9 -0.62 9 -3 9 C-2.01 6.03 -1.02 3.06 0 0 Z " fill="#EFEFEF" transform="translate(355,363)"/>
<path d="M0 0 C2.97 0 5.94 0 9 0 C9 0.66 9 1.32 9 2 C9.66 2 10.32 2 11 2 C11 2.66 11 3.32 11 4 C8.69 4.33 6.38 4.66 4 5 C4.33 4.01 4.66 3.02 5 2 C3.35 1.67 1.7 1.34 0 1 C0 0.67 0 0.34 0 0 Z " fill="#ED343B" transform="translate(284,368)"/>
<path d="M0 0 C3.3 0 6.6 0 10 0 C10.33 1.32 10.66 2.64 11 4 C9.35 4.33 7.7 4.66 6 5 C6 3.68 6 2.36 6 1 C4.02 1 2.04 1 0 1 C0 0.67 0 0.34 0 0 Z " fill="#EC2E36" transform="translate(179,367)"/>
<path d="M0 0 C2.31 0.66 4.62 1.32 7 2 C7 2.99 7 3.98 7 5 C4.36 4.67 1.72 4.34 -1 4 C-0.67 2.68 -0.34 1.36 0 0 Z " fill="#E6363F" transform="translate(271,206)"/>
<path d="M0 0 C0 3.90838866 -1.50567876 5.11594107 -4 8 C-4.99 7.67 -5.98 7.34 -7 7 C-4.66666667 4.66666667 -2.33333333 2.33333333 0 0 Z " fill="#EC343C" transform="translate(333,265)"/>
<path d="M0 0 C1.98 0.495 1.98 0.495 4 1 C4 2.32 4 3.64 4 5 C1.525 4.01 1.525 4.01 -1 3 C-0.67 2.01 -0.34 1.02 0 0 Z " fill="#EE343C" transform="translate(316,354)"/>
<path d="M0 0 C1.32 0.66 2.64 1.32 4 2 C3.34 3.32 2.68 4.64 2 6 C1.01 5.01 0.02 4.02 -1 3 C-0.67 2.01 -0.34 1.02 0 0 Z " fill="#EB212A" transform="translate(214,370)"/>
<path d="M0 0 C0.66 0 1.32 0 2 0 C4 3 4 3 4 6 C3.01 6 2.02 6 1 6 C0.67 4.02 0.34 2.04 0 0 Z " fill="#EB343B" transform="translate(354,245)"/>
</svg>
