<?xml version="1.0" encoding="UTF-8"?>
<svg version="1.1" xmlns="http://www.w3.org/2000/svg" width="625" height="625">
<path d="M0 0 C6.48394409 5.3817597 12.33642789 11.275341 18.24023438 17.27929688 C18.99498047 18.04177734 19.74972656 18.80425781 20.52734375 19.58984375 C21.19499756 20.26909912 21.86265137 20.94835449 22.55053711 21.64819336 C24.42885968 23.45163015 26.31736157 25.12208945 28.30104065 26.80104065 C34.7106289 32.39967291 40.63068982 38.50818396 46.6328125 44.53515625 C48.00008164 45.9043472 49.36758059 47.2733087 50.73529053 48.64205933 C53.66788301 51.57780039 56.59891759 54.51508477 59.52874756 57.45358276 C64.16630051 62.1047148 68.80771594 66.7519796 73.44970703 71.39868164 C84.13987115 82.10086363 94.82500721 92.80806108 105.51010132 103.51530457 C115.30734717 113.33275547 125.10566249 123.14913268 134.908041 132.96145916 C139.51770545 137.57609116 144.12492389 142.19314698 148.73025513 146.81210327 C151.60034959 149.68968271 154.47253738 152.56516582 157.34528351 155.44009781 C158.67156816 156.76824666 159.99699204 158.09725576 161.32146454 159.42721176 C170.1729413 168.36687004 170.1729413 168.36687004 179.63162231 176.65162659 C181 178 181 178 182 181 C181.57332031 181.36609375 181.14664062 181.7321875 180.70703125 182.109375 C177.32285493 185.04000192 173.98042897 188.00403808 170.71484375 191.06640625 C170.14338623 191.60104492 169.57192871 192.13568359 168.9831543 192.68652344 C167.84160873 193.75747618 166.70364591 194.83226269 165.56958008 195.91113281 C162.7654447 198.53865975 160.48034577 200.25982711 157 202 C105.85 150.85 54.7 99.7 2 47 C-1.18294531 48.59147265 -2.64828344 49.39885838 -5.00100136 51.76049232 C-5.56855884 52.32530111 -6.13611633 52.89010989 -6.72087252 53.4720341 C-7.33429959 54.09265109 -7.94772666 54.71326808 -8.57974243 55.35269165 C-9.23920093 56.01185243 -9.89865943 56.67101321 -10.57810152 57.35014856 C-12.79073128 59.56416936 -14.99612715 61.78525888 -17.20166016 64.00634766 C-18.78474767 65.59327262 -20.3682905 67.17974348 -21.95225525 68.76579285 C-25.36381806 72.18368242 -28.77224756 75.604656 -32.17833328 79.02800369 C-37.55894238 84.43560652 -42.94712604 89.83561825 -48.33651733 95.23446655 C-55.88669429 102.79931261 -63.43407965 110.36692933 -70.97851562 117.9375 C-71.45721798 118.41785798 -71.93592033 118.89821595 -72.42912881 119.39313023 C-75.82785081 122.80365557 -79.22643961 126.21431362 -82.625 129.625 C-86.5106479 133.52450803 -90.39635948 137.42395258 -94.28222656 141.32324219 C-94.76095115 141.80362303 -95.23967574 142.28400387 -95.73290713 142.77894171 C-103.70513233 150.77850519 -111.68130063 158.77412623 -119.66019857 166.76703489 C-125.02308023 172.13991284 -130.38104008 177.51763797 -135.73535562 182.8990519 C-139.05923624 186.23779418 -142.38720386 189.57243901 -145.71632576 192.90595436 C-147.26531092 194.45870074 -148.81255784 196.01318329 -150.35798073 197.56947517 C-152.45885516 199.68466466 -154.5657047 201.79371191 -156.67422485 203.90127563 C-157.29211337 204.52635407 -157.91000188 205.15143251 -158.54661429 205.79545271 C-162.77181414 210 -162.77181414 210 -165 210 C-168.94120511 171.31819229 -168.94120511 171.31819229 -161.54429626 161.00724792 C-156.76845086 155.27823589 -151.00377184 150.60002928 -144.90600586 146.3371582 C-142.54276238 144.4365172 -140.88194465 142.78564883 -138.95777893 140.49943542 C-134.47177881 135.31300975 -129.62945469 130.50455229 -124.76953125 125.671875 C-123.75501483 124.65928202 -122.74072899 123.64645796 -121.72665405 122.63342285 C-119.55702906 120.46693842 -117.38586561 118.30201234 -115.21347046 116.13830566 C-111.77209532 112.71055192 -108.33462614 109.27889861 -104.89770508 105.84667969 C-96.98212223 97.94309504 -89.06151574 90.04455119 -81.14085388 82.14605713 C-73.87627715 74.90170768 -66.61278904 67.65627538 -59.35335445 60.40677261 C-55.94298295 57.00135602 -52.53019506 53.59838608 -49.11547852 50.19732666 C-46.98521048 48.07456513 -44.8570587 45.94969137 -42.72945023 43.82426453 C-41.74961667 42.84628866 -40.7689264 41.86917019 -39.78727341 40.89302063 C-34.83482788 35.96744734 -29.99631603 31.00853264 -25.46433926 25.69074249 C-23.12509633 22.98982643 -20.60511979 20.48065931 -18.06640625 17.96875 C-17.5436058 17.4473645 -17.02080536 16.925979 -16.48216248 16.38879395 C-14.84465002 14.75678922 -13.20366151 13.12833426 -11.5625 11.5 C-10.4379167 10.38044368 -9.31356595 9.26065371 -8.18945312 8.140625 C-5.46230656 5.42438466 -2.73204093 2.71131708 0 0 Z " fill="#F1592A" transform="translate(304,74)"/>
<path d="M0 0 C2.73353127 1.13639469 4.27189257 2.67979677 6.36061954 4.78014088 C7.20438648 5.62122898 8.04815342 6.46231709 8.91748905 7.32889271 C9.83496418 8.25872471 10.75243931 9.18855671 11.69771671 10.14656544 C12.67973538 11.13106777 13.66242354 12.11490269 14.64573002 13.09811878 C16.76234999 15.21744511 18.87412196 17.34144783 20.98227024 19.46920109 C24.32110378 22.83907478 27.67029381 26.19852639 31.02089787 29.55669117 C36.3259036 34.87619523 41.62364672 40.20286756 46.91846728 45.53250778 C56.38223521 55.05806982 65.85800436 64.57168535 75.33672881 74.08236206 C78.65929316 77.4167004 81.97864389 80.75419532 85.29528093 84.09442925 C87.36894261 86.1820198 89.44467329 88.26754468 91.52085018 90.35263348 C92.92853633 91.76772423 94.33360389 93.18541839 95.73856449 94.60321522 C100.17211106 99.05211407 104.66741697 103.34373696 109.43347645 107.43497181 C111.34713823 109.08674757 113.16105802 110.81389593 114.94478703 112.60481739 C115.58484684 113.24495274 116.22490665 113.88508808 116.88436222 114.54462147 C117.54303288 115.20845341 118.20170353 115.87228535 118.8803339 116.55623341 C119.57928776 117.25660221 120.27824162 117.95697102 120.99837589 118.67856312 C123.20099929 120.88672423 125.40009471 123.09836003 127.5990839 125.31013966 C129.10405898 126.8201378 130.60926525 128.32990555 132.1147089 129.83943653 C135.77884219 133.51451607 139.4398187 137.19271321 143.0990839 140.87263966 C139.29823548 145.4118547 135.37399606 149.74169619 131.176507 153.91547108 C130.32964716 154.76361255 130.32964716 154.76361255 129.46567905 155.62888819 C127.59340054 157.50279985 125.71759643 159.37314005 123.84175968 161.24348927 C122.49092321 162.59404337 121.14030748 163.94481829 119.78989506 165.29579639 C116.13764353 168.94833397 112.48232446 172.59778746 108.82643461 176.24668288 C105.00096193 180.06588992 101.17833475 183.88794287 97.35540104 187.70969105 C90.12212323 194.93986499 82.88630084 202.16748676 75.64955413 209.39418846 C67.40817331 217.62437878 59.16964331 225.8574203 50.93134809 234.09069908 C33.9904237 251.02118048 17.04593361 267.94808945 0.0990839 284.87263966 C-4.33278803 281.15691077 -8.57890159 277.33870683 -12.65262508 273.23445606 C-13.18034008 272.70688709 -13.70805508 272.17931812 -14.25176144 271.63576221 C-15.96922974 269.91760566 -17.68314362 268.19595114 -19.39700985 266.47420216 C-20.59747897 265.27186498 -21.79817128 264.0697506 -22.99907589 262.8678484 C-26.13958158 259.72354803 -29.27707091 256.57625487 -32.41391659 253.42830372 C-35.62324228 250.20869792 -38.83544615 246.99196645 -42.04740047 243.77498341 C-48.33470712 237.4769933 -54.61882716 231.175834 -60.9009161 224.87263966 C-57.78318933 221.18804982 -54.68419578 217.5258884 -51.2524786 214.12654591 C-50.64017391 213.51746387 -50.02786922 212.90838184 -49.39700985 212.28084278 C-48.77954891 211.67176075 -48.16208797 211.06267872 -47.5259161 210.43513966 C-46.88525204 209.79898731 -46.24458797 209.16283497 -45.58450985 208.50740528 C-44.02560731 206.96013634 -42.46440194 205.41527474 -40.9009161 203.87263966 C-37.71831759 205.27773065 -35.58743144 206.94185308 -33.14212704 209.40437794 C-32.06145962 210.48527195 -32.06145962 210.48527195 -30.95896053 211.5880022 C-30.19214962 212.36513569 -29.42533871 213.14226917 -28.6352911 213.94295216 C-27.84189327 214.73917988 -27.04849545 215.5354076 -26.23105526 216.35576344 C-23.69960907 218.89839913 -21.17520807 221.44790313 -18.6509161 223.99763966 C-16.93522993 225.72335719 -15.21908948 227.44862321 -13.5024786 229.17342091 C-9.29667263 233.40127097 -5.09703491 237.63517763 -0.9009161 241.87263966 C4.82122686 237.11558493 10.09046858 232.01737666 15.33907413 226.74617481 C16.23742481 225.84797016 17.13577549 224.94976551 18.06134892 224.02434254 C20.50524851 221.58072788 22.94606952 219.13405958 25.38631797 216.68679953 C27.94429063 214.12254242 30.50512741 211.56114874 33.06565189 208.99944019 C37.9052517 204.15674201 42.74229843 199.31150215 47.57841593 194.46532667 C53.08797199 188.94456292 58.60039437 183.42666494 64.11305034 177.90899682 C75.44490352 166.5667131 86.77318108 155.22086521 98.0990839 143.87263966 C93.31555803 138.11635813 88.18245357 132.82000779 82.88082218 127.54085255 C81.97286396 126.6327483 81.06490574 125.72464405 80.12943363 124.78902149 C77.6589604 122.31826329 75.18543307 119.85058385 72.71131468 117.3834765 C70.11903065 114.7974763 67.52960947 112.20861259 64.9398737 109.62006092 C60.0440515 104.72733729 55.14568754 99.83716669 50.24638832 94.94792503 C44.6651665 89.37791034 39.08680996 83.80502982 33.50868344 78.23191559 C22.04198543 66.77564853 10.57172321 55.32295699 -0.9009161 43.87263966 C-3.96754217 45.33849094 -6.04114328 46.78575841 -8.41263485 49.23665333 C-9.08012753 49.92043552 -9.7476202 50.60421772 -10.43533993 51.30872059 C-11.14585506 52.04524357 -11.8563702 52.78176655 -12.5884161 53.54060841 C-14.10621638 55.0885551 -15.62445891 56.63606826 -17.1431036 58.18318653 C-19.53155972 60.62758358 -21.91591988 63.07564428 -24.29251766 65.5315752 C-26.58848697 67.89979695 -28.89961166 70.25232758 -31.2134161 72.60310841 C-31.92393124 73.34570408 -32.63444637 74.08829975 -33.36649227 74.85339832 C-34.03398495 75.52772404 -34.70147762 76.20204975 -35.38919735 76.89680958 C-35.97225643 77.49700413 -36.55531551 78.09719868 -37.15604305 78.71558094 C-38.9009161 79.87263966 -38.9009161 79.87263966 -41.01566219 79.64307117 C-43.29039527 78.71347434 -44.51297902 77.58788801 -46.2134161 75.81795216 C-46.81411922 75.20306934 -47.41482235 74.58818653 -48.0337286 73.95467091 C-48.64990047 73.30885059 -49.26607235 72.66303028 -49.9009161 71.99763966 C-55.05220957 66.54053091 -55.05220957 66.54053091 -60.9009161 61.87263966 C-60.46014875 57.47361343 -57.50116244 55.03659281 -54.52664852 52.0784502 C-53.96722057 51.51055271 -53.40779263 50.94265522 -52.83141232 50.35754871 C-50.98084754 48.48359272 -49.11929368 46.62103822 -47.25638485 44.75935841 C-45.96672546 43.4626005 -44.67736687 42.16554337 -43.38829708 40.86819935 C-40.68568404 38.15213785 -37.97720094 35.44209215 -35.26492977 32.73567677 C-31.7841461 29.2607998 -28.32198443 25.76799625 -24.86441231 22.27004242 C-22.20765104 19.58748277 -19.53955697 16.91642535 -16.86804295 14.24856472 C-15.58622264 12.96504686 -14.30840141 11.67752262 -13.03463459 10.38601208 C-11.25584456 8.585181 -9.46201198 6.80082635 -7.66336727 5.01985645 C-6.87378124 4.21037556 -6.87378124 4.21037556 -6.06824398 3.38454151 C-2.43767982 -0.16332322 -2.43767982 -0.16332322 0 0 Z " fill="#020202" transform="translate(304.90091609954834,154.1273603439331)"/>
<path d="M0 0 C8.63153322 4.10236205 15.39387751 12.2278018 22 19 C15.67441637 26.76885405 8.42289993 33.63971633 1.30688477 40.67260742 C-6.57922108 48.47473624 -14.06138647 56.32673309 -21 65 C-14.73 71.27 -8.46 77.54 -2 84 C3.43503904 79.39032497 3.43503904 79.39032497 8.57518005 74.54507446 C9.1906218 73.93100739 9.80606354 73.31694031 10.44015503 72.68426514 C11.08824127 72.03258362 11.73632751 71.3809021 12.40405273 70.70947266 C13.107332 70.00633942 13.81061127 69.30320618 14.53520203 68.57876587 C16.83704698 66.27622958 19.13533902 63.97018187 21.43359375 61.6640625 C23.03762792 60.05816139 24.6418844 58.4524823 26.24635315 56.84701538 C30.4521607 52.63740446 34.65495543 48.42479819 38.8571167 44.21154785 C43.15226772 39.90613569 47.45027946 35.6035814 51.74804688 31.30078125 C60.16815701 22.86997228 68.58508507 14.43599416 77 6 C80.90816406 7.81274458 83.59751165 10.32814139 86.59472656 13.36767578 C87.14151062 13.91416779 87.68829468 14.46065979 88.25164795 15.02371216 C90.05275649 16.82621093 91.84668247 18.63568396 93.640625 20.4453125 C94.89000495 21.69842367 96.13982801 22.95109319 97.39007568 24.20333862 C100.67586872 27.49675955 103.9556107 30.79614291 107.23413086 34.09680176 C110.58214253 37.46528994 113.93583907 40.8281076 117.2890625 44.19140625 C123.86495296 50.78873176 130.43446516 57.39236983 137 64 C135.35928529 68.15602074 132.33462112 70.9680782 129.23681641 74.06958008 C128.64798172 74.66673828 128.05914703 75.26389648 127.45246887 75.87915039 C125.5076035 77.84808091 123.55518905 79.80929581 121.6015625 81.76953125 C120.24629084 83.13376795 118.89109782 84.49808279 117.53598022 85.86247253 C114.69665212 88.71828094 111.85296763 91.56967421 109.00683594 94.41870117 C105.35406196 98.07687489 101.71773768 101.75094996 98.08513832 105.42914295 C95.29349965 108.25045506 92.49074316 111.06051531 89.68473434 113.86752892 C88.33857945 115.21790113 86.99656307 116.57241173 85.658741 117.93103981 C83.79137541 119.82513229 81.90900444 121.70292123 80.02197266 123.57739258 C79.4691008 124.14509872 78.91622894 124.71280487 78.34660339 125.29771423 C76.78335571 126.83137512 76.78335571 126.83137512 74 129 C70.21811878 128.90512347 68.46182122 126.81322625 65.890625 124.18359375 C65.13652344 123.41982422 64.38242187 122.65605469 63.60546875 121.86914062 C62.82816406 121.06669922 62.05085938 120.26425781 61.25 119.4375 C60.45722656 118.63119141 59.66445313 117.82488281 58.84765625 116.99414062 C56.89152954 115.00266222 54.94274281 113.00452279 53 111 C54.45868754 107.64000982 56.30868948 105.44796894 58.89892578 102.87402344 C59.6996048 102.07349548 60.50028381 101.27296753 61.32522583 100.44818115 C62.18985443 99.59387512 63.05448303 98.73956909 63.9453125 97.859375 C65.27283035 96.53610199 65.27283035 96.53610199 66.62716675 95.18609619 C68.97450131 92.84805457 71.32606785 90.51444126 73.67980957 88.18286133 C76.08313927 85.80003474 78.48077767 83.41149652 80.87890625 81.0234375 C85.58071467 76.34368138 90.28818664 71.66968133 95 67 C93.46712414 63.77685313 91.85849312 61.62264402 89.3046875 59.109375 C88.58925781 58.40039062 87.87382812 57.69140625 87.13671875 56.9609375 C86.39035156 56.23132813 85.64398438 55.50171875 84.875 54.75 C84.12089844 54.00492187 83.36679687 53.25984375 82.58984375 52.4921875 C80.73099228 50.6568658 78.86762995 48.8263809 77 47 C74.03606032 48.33285348 71.97467012 49.78359455 69.6986084 52.0945282 C69.06782883 52.72978424 68.43704926 53.36504028 67.78715515 54.01954651 C67.10651505 54.71523239 66.42587494 55.41091827 65.72460938 56.12768555 C64.63609428 57.22780975 64.63609428 57.22780975 63.52558899 58.35015869 C61.95148209 59.9419126 60.37958693 61.53585607 58.80964661 63.13171959 C56.32720479 65.65352632 53.83735388 68.16778518 51.34509277 70.67988586 C44.26047174 77.82261583 37.18562458 84.97491041 30.12548828 92.1418457 C25.80673535 96.52486318 21.47602195 100.89575188 17.1374054 105.25910378 C15.48367776 106.92713455 13.8346452 108.59983331 12.19035339 110.27716637 C9.89659347 112.61638764 7.58802257 114.93995487 5.27539062 117.26049805 C4.59475052 117.96225662 3.91411041 118.6640152 3.21284485 119.38703918 C2.58206528 120.01383575 1.95128571 120.64063232 1.3013916 121.28642273 C0.75719826 121.83782268 0.21300491 122.38922262 -0.34767914 122.95733166 C-2 124 -2 124 -4.0406065 123.81067848 C-7.19032429 122.50751583 -9.33647649 120.09677449 -11.70239258 117.7175293 C-12.2605365 117.16785492 -12.81868042 116.61818054 -13.39373779 116.05184937 C-15.23522795 114.23374793 -17.06531546 112.40466362 -18.89453125 110.57421875 C-20.16886899 109.30697965 -21.44350588 108.04004132 -22.71842957 106.77339172 C-25.38741271 104.11785644 -28.05037949 101.45645312 -30.7097168 98.79125977 C-34.12406199 95.37100775 -37.55632807 91.96938433 -40.99374866 88.57234478 C-43.62998584 85.96190665 -46.25471861 83.34013651 -48.87625694 80.71494484 C-50.13744623 79.45545303 -51.40264164 78.19995991 -52.6718235 76.94852257 C-54.44152653 75.20086209 -56.19473872 73.43816985 -57.94458008 71.6706543 C-58.47488327 71.15361435 -59.00518646 70.6365744 -59.55155945 70.10386658 C-60.98323059 68.63822937 -60.98323059 68.63822937 -63 66 C-62.49470881 61.42062885 -59.33189183 58.93259274 -56.19506836 55.85449219 C-55.59020096 55.24918671 -54.98533356 54.64388123 -54.36213684 54.02023315 C-52.36173476 52.02192053 -50.35091749 50.0344427 -48.33984375 48.046875 C-46.95056499 46.66319161 -45.56194725 45.27884424 -44.17396545 43.89385986 C-40.51939089 40.2507386 -36.85589668 36.61671615 -33.19049072 32.98449707 C-29.45165739 29.27635392 -25.72130418 25.5597017 -21.99023438 21.84375 C-14.66844458 14.55413296 -7.33720638 7.27409729 0 0 Z " fill="#F6931E" transform="translate(227,231)"/>
<path d="M0 0 C2.77689752 17.50652135 5.87102885 38.46956028 -4.47833788 53.98130476 C-12.75855609 65.01191123 -22.97652097 74.42258146 -33.05050802 83.78049231 C-37.72361428 88.16942251 -42.26377729 92.69220517 -46.82107544 97.20071411 C-54.46177446 104.72467936 -62.17631472 112.16165986 -69.95849609 119.53857422 C-77.9567088 127.12068777 -85.90022768 134.75407195 -93.78076172 142.45849609 C-94.26949819 142.93627809 -94.75823466 143.41406008 -95.26178132 143.90632032 C-97.22652242 145.82746443 -99.19085938 147.74902049 -101.15467285 149.67111283 C-116.13018642 164.32829067 -131.15820256 178.93118948 -146.32394791 193.39165878 C-147.90818224 194.90266025 -149.49089862 196.41525499 -151.07202148 197.92951202 C-153.22093762 199.98603418 -155.37601922 202.03584756 -157.53341675 204.08346558 C-158.16570659 204.69020359 -158.79799642 205.2969416 -159.44944656 205.92206562 C-163.77037239 210 -163.77037239 210 -166 210 C-169.94120511 171.31819229 -169.94120511 171.31819229 -162.54429626 161.00724792 C-157.76845086 155.27823589 -152.00377184 150.60002928 -145.90600586 146.3371582 C-143.54276238 144.4365172 -141.88194465 142.78564883 -139.95777893 140.49943542 C-135.47177881 135.31300975 -130.62945469 130.50455229 -125.76953125 125.671875 C-124.75501483 124.65928202 -123.74072899 123.64645796 -122.72665405 122.63342285 C-120.55702906 120.46693842 -118.38586561 118.30201234 -116.21347046 116.13830566 C-112.77209532 112.71055192 -109.33462614 109.27889861 -105.89770508 105.84667969 C-97.98212223 97.94309504 -90.06151574 90.04455119 -82.14085388 82.14605713 C-74.87627715 74.90170768 -67.61278904 67.65627538 -60.35335445 60.40677261 C-56.94298295 57.00135602 -53.53019506 53.59838608 -50.11547852 50.19732666 C-47.98521048 48.07456513 -45.8570587 45.94969137 -43.72945023 43.82426453 C-42.74961667 42.84628866 -41.7689264 41.86917019 -40.78727341 40.89302063 C-35.83464234 35.96726281 -30.99585058 31.0079317 -26.46278954 25.69074249 C-24.13091225 22.99547847 -21.62584019 20.48250746 -19.1015625 17.96875 C-18.32091934 17.18667175 -18.32091934 17.18667175 -17.52450562 16.38879395 C-16.44187933 15.30549553 -15.35802313 14.2234249 -14.27294922 13.14257812 C-12.6039473 11.47901592 -10.94045846 9.81007075 -9.27734375 8.140625 C-8.21907116 7.08301187 -7.16048914 6.02570826 -6.1015625 4.96875 C-5.60371246 4.46887573 -5.10586243 3.96900146 -4.59292603 3.45397949 C-1.11500094 0 -1.11500094 0 0 0 Z " fill="#F6931E" transform="translate(305,74)"/>
<path d="M0 0 C3.93467549 1.59247554 6.57577776 4.30662369 9.50292969 7.27587891 C10.03996017 7.81261734 10.57699066 8.34935577 11.1302948 8.90235901 C12.89893859 10.67239283 14.66039824 12.44939857 16.421875 14.2265625 C17.64883466 15.45725344 18.87623749 16.6875027 20.10406494 17.91732788 C23.33067488 21.15156516 26.55123291 24.39176408 29.77056885 27.63323975 C33.05825672 30.94140534 36.35163068 34.24389946 39.64453125 37.546875 C46.10193298 44.02571079 52.55295568 50.51085869 59 57 C57.35928529 61.15602074 54.33462112 63.9680782 51.23681641 67.06958008 C50.64798172 67.66673828 50.05914703 68.26389648 49.45246887 68.87915039 C47.5076035 70.84808091 45.55518905 72.80929581 43.6015625 74.76953125 C42.24629084 76.13376795 40.89109782 77.49808279 39.53598022 78.86247253 C36.69665212 81.71828094 33.85296763 84.56967421 31.00683594 87.41870117 C27.35406196 91.07687489 23.71773768 94.75094996 20.08513832 98.42914295 C17.29349965 101.25045506 14.49074316 104.06051531 11.68473434 106.86752892 C10.33857945 108.21790113 8.99656307 109.57241173 7.658741 110.93103981 C5.79137541 112.82513229 3.90900444 114.70292123 2.02197266 116.57739258 C1.4691008 117.14509872 0.91622894 117.71280487 0.34660339 118.29771423 C-1.21664429 119.83137512 -1.21664429 119.83137512 -4 122 C-7.78188122 121.90512347 -9.53817878 119.81322625 -12.109375 117.18359375 C-12.86347656 116.41982422 -13.61757813 115.65605469 -14.39453125 114.86914062 C-15.56048828 113.66547852 -15.56048828 113.66547852 -16.75 112.4375 C-17.93916016 111.22803711 -17.93916016 111.22803711 -19.15234375 109.99414062 C-21.10847046 108.00266222 -23.05725719 106.00452279 -25 104 C-23.54131246 100.64000982 -21.69131052 98.44796894 -19.10107422 95.87402344 C-18.3003952 95.07349548 -17.49971619 94.27296753 -16.67477417 93.44818115 C-15.81014557 92.59387512 -14.94551697 91.73956909 -14.0546875 90.859375 C-13.1696756 89.97719299 -12.2846637 89.09501099 -11.37283325 88.18609619 C-9.02549869 85.84805457 -6.67393215 83.51444126 -4.32019043 81.18286133 C-1.91686073 78.80003474 0.48077767 76.41149652 2.87890625 74.0234375 C7.58071467 69.34368138 12.28818664 64.66968133 17 60 C15.52742742 56.84745201 14.57137494 55.47868105 11.5234375 53.76953125 C6.32833113 50.25979592 2.51736152 46.85591727 0 41 C-2.51068217 27.75704835 -0.90198427 13.35954344 0 0 Z " fill="#F15A29" transform="translate(305,238)"/>
<path d="M0 0 C0.99 0.33 1.98 0.66 3 1 C2.67 15.19 2.34 29.38 2 44 C0.02 44.495 0.02 44.495 -2 45 C-3.85492042 46.45605859 -3.85492042 46.45605859 -5.60351562 48.34228516 C-6.29102905 49.04616364 -6.97854248 49.75004211 -7.68688965 50.47525024 C-8.41927856 51.23880829 -9.15166748 52.00236633 -9.90625 52.7890625 C-11.46979824 54.38566529 -13.03360827 55.98201175 -14.59765625 57.578125 C-17.05773553 60.10669036 -19.51363568 62.63911929 -21.96435547 65.17675781 C-24.33013386 67.62071635 -26.71087007 70.04929262 -29.09375 72.4765625 C-29.82613892 73.24416901 -30.55852783 74.01177551 -31.31311035 74.80264282 C-32.00062378 75.50021698 -32.68813721 76.19779114 -33.39648438 76.91650391 C-33.99730835 77.53747955 -34.59813232 78.1584552 -35.21716309 78.79824829 C-37 80 -37 80 -39.1204834 79.77716064 C-41.38631169 78.84026412 -42.61565704 77.71150733 -44.3125 75.9453125 C-44.91320312 75.33042969 -45.51390625 74.71554688 -46.1328125 74.08203125 C-46.74898438 73.43621094 -47.36515625 72.79039062 -48 72.125 C-53.15129347 66.66789126 -53.15129347 66.66789126 -59 62 C-58.56827546 57.58180637 -55.56583046 55.16512216 -52.56225586 52.22167969 C-51.99640274 51.65538849 -51.43054962 51.08909729 -50.84754944 50.50564575 C-48.97700443 48.63718936 -47.09606074 46.77958101 -45.21484375 44.921875 C-43.91524591 43.62787283 -42.6163092 42.33320636 -41.31800842 41.03790283 C-37.90016715 37.63151249 -34.47341237 34.2342274 -31.04473877 30.83874512 C-27.54719606 27.37189771 -24.05813702 23.89653563 -20.56835938 20.421875 C-13.72052726 13.60621145 -6.86325073 6.80013457 0 0 Z " fill="#575759" transform="translate(303,154)"/>
<path d="M0 0 C15.18647816 7.03662107 32.81223841 24.62039321 41 39 C45.74232013 52.19610544 43.42456693 67.5040842 41 81 C34.05896567 75.31978209 27.82326094 68.94998244 21.50390625 62.6015625 C20.30343713 61.39922532 19.10274482 60.19711095 17.90184021 58.99520874 C14.76133452 55.85090837 11.62384519 52.70361521 8.48699951 49.55566406 C5.27767382 46.33605827 2.06546995 43.11932679 -1.14648438 39.90234375 C-7.43379102 33.60435365 -13.71791106 27.30319435 -20 21 C-16.88227323 17.31541017 -13.78327968 13.65324874 -10.3515625 10.25390625 C-9.73925781 9.64482422 -9.12695312 9.03574219 -8.49609375 8.40820312 C-7.87863281 7.79912109 -7.26117188 7.19003906 -6.625 6.5625 C-5.98433594 5.92634766 -5.34367187 5.29019531 -4.68359375 4.63476562 C-3.12469121 3.08749668 -1.56348584 1.54263508 0 0 Z " fill="#575759" transform="translate(264,358)"/>
<path d="M0 0 C0.09892174 5.6233202 0.17149342 11.24613333 0.21972656 16.87011719 C0.23983452 18.78296735 0.26712507 20.69575611 0.30175781 22.60839844 C0.35031249 25.35887811 0.37297658 28.10854477 0.390625 30.859375 C0.41127014 31.71368103 0.43191528 32.56798706 0.45318604 33.44818115 C0.45464453 37.31271342 0.42693346 39.36629635 -1.77441406 42.63378906 C-4 44 -4 44 -5.99316406 43.98852539 C-8.53004166 42.73891257 -10.13116301 41.2067651 -12.109375 39.18359375 C-12.86347656 38.41982422 -13.61757813 37.65605469 -14.39453125 36.86914062 C-15.17183594 36.06669922 -15.94914062 35.26425781 -16.75 34.4375 C-17.54277344 33.63119141 -18.33554687 32.82488281 -19.15234375 31.99414062 C-21.10847046 30.00266222 -23.05725719 28.00452279 -25 26 C-23.41579763 22.1503265 -20.95718753 19.71341435 -18.02734375 16.796875 C-17.54423233 16.3142218 -17.06112091 15.8315686 -16.56336975 15.33428955 C-15.54615946 14.32008976 -14.52653039 13.30831081 -13.50463867 12.29882812 C-11.93410245 10.74664214 -10.37180962 9.18650796 -8.81054688 7.625 C-1.14751637 0 -1.14751637 0 0 0 Z " fill="#F6931E" transform="translate(305,316)"/>
<path d="M0 0 C0.75410156 0.00451172 1.50820313 0.00902344 2.28515625 0.01367188 C4.14847127 0.02546501 6.01174555 0.04340058 7.875 0.0625 C7.96236736 3.79151814 8.01551482 7.52027165 8.0625 11.25 C8.08763672 12.30509766 8.11277344 13.36019531 8.13867188 14.44726562 C8.14833984 15.46884766 8.15800781 16.49042969 8.16796875 17.54296875 C8.1836792 18.48035889 8.19938965 19.41774902 8.21557617 20.38354492 C7.80729508 23.59506353 6.76330698 25.45628631 4.875 28.0625 C2.30935275 29.34532363 0.36466931 29.26641953 -2.5 29.3125 C-3.45648438 29.33828125 -4.41296875 29.3640625 -5.3984375 29.390625 C-8.54798247 29.01159667 -9.90901362 28.30999329 -12.125 26.0625 C-12.125 25.0725 -12.125 24.0825 -12.125 23.0625 C-8.29274573 22.97337781 -4.85937848 23.18382271 -1.125 24.0625 C-0.465 22.7425 0.195 21.4225 0.875 20.0625 C0.215 20.3925 -0.445 20.7225 -1.125 21.0625 C-7.2976283 21.51973173 -7.2976283 21.51973173 -10.5 19.75 C-13.67636117 16.45147109 -13.39371888 12.60306573 -13.3515625 8.2890625 C-13.04478052 5.27413618 -12.02216572 3.39747319 -10.125 1.0625 C-6.93675432 -0.53162284 -3.49603338 -0.03924735 0 0 Z M-4.875 5.0625 C-6.77203032 8.09774851 -6.43726309 10.56515339 -6.125 14.0625 C-5.135 15.5475 -5.135 15.5475 -4.125 17.0625 C-2.475 16.4025 -0.825 15.7425 0.875 15.0625 C0.875 11.7625 0.875 8.4625 0.875 5.0625 C-2.85425442 3.64008676 -2.85425442 3.64008676 -4.875 5.0625 Z " fill="#000000" transform="translate(335.125,472.9375)"/>
<path d="M0 0 C0.75410156 0.00451172 1.50820313 0.00902344 2.28515625 0.01367188 C4.14847127 0.02546501 6.01174555 0.04340058 7.875 0.0625 C7.96236736 3.79151814 8.01551482 7.52027165 8.0625 11.25 C8.08763672 12.30509766 8.11277344 13.36019531 8.13867188 14.44726562 C8.14833984 15.46884766 8.15800781 16.49042969 8.16796875 17.54296875 C8.1836792 18.48035889 8.19938965 19.41774902 8.21557617 20.38354492 C7.80729508 23.59506353 6.76330698 25.45628631 4.875 28.0625 C2.30935275 29.34532363 0.36466931 29.26641953 -2.5 29.3125 C-3.45648438 29.33828125 -4.41296875 29.3640625 -5.3984375 29.390625 C-8.54798247 29.01159667 -9.90901362 28.30999329 -12.125 26.0625 C-12.125 25.0725 -12.125 24.0825 -12.125 23.0625 C-8.29274573 22.97337781 -4.85937848 23.18382271 -1.125 24.0625 C-0.465 22.7425 0.195 21.4225 0.875 20.0625 C0.215 20.3925 -0.445 20.7225 -1.125 21.0625 C-7.2976283 21.51973173 -7.2976283 21.51973173 -10.5 19.75 C-13.67636117 16.45147109 -13.39371888 12.60306573 -13.3515625 8.2890625 C-13.04478052 5.27413618 -12.02216572 3.39747319 -10.125 1.0625 C-6.93675432 -0.53162284 -3.49603338 -0.03924735 0 0 Z M-4.875 5.0625 C-6.77203032 8.09774851 -6.43726309 10.56515339 -6.125 14.0625 C-5.135 15.5475 -5.135 15.5475 -4.125 17.0625 C-2.475 16.4025 -0.825 15.7425 0.875 15.0625 C0.875 11.7625 0.875 8.4625 0.875 5.0625 C-2.85425442 3.64008676 -2.85425442 3.64008676 -4.875 5.0625 Z " fill="#F1592A" transform="translate(261.125,472.9375)"/>
<path d="M0 0 C2.31 0 4.62 0 7 0 C7 9.24 7 18.48 7 28 C3.16375 28.0928125 3.16375 28.0928125 -0.75 28.1875 C-1.54889648 28.21481201 -2.34779297 28.24212402 -3.17089844 28.27026367 C-6.35427685 28.30755009 -8.62936144 28.200074 -11.453125 26.67578125 C-14.53080962 23.34162291 -14.26843364 19.51137537 -14.2265625 15.2265625 C-13.91978052 12.21163618 -12.89716572 10.33497319 -11 8 C-7.78548731 6.39274365 -4.56387464 6.94251815 -1 7 C-0.67 4.69 -0.34 2.38 0 0 Z M-5.75 12 C-7.64703032 15.03524851 -7.31226309 17.50265339 -7 21 C-6.01 22.485 -6.01 22.485 -5 24 C-3.35 23.34 -1.7 22.68 0 22 C0 18.7 0 15.4 0 12 C-3.72925442 10.57758676 -3.72925442 10.57758676 -5.75 12 Z " fill="#000000" transform="translate(478,466)"/>
<path d="M0 0 C2.31 0 4.62 0 7 0 C7 9.24 7 18.48 7 28 C3.16375 28.0928125 3.16375 28.0928125 -0.75 28.1875 C-1.54889648 28.21481201 -2.34779297 28.24212402 -3.17089844 28.27026367 C-6.35427685 28.30755009 -8.62936144 28.200074 -11.453125 26.67578125 C-14.53080962 23.34162291 -14.26843364 19.51137537 -14.2265625 15.2265625 C-13.91978052 12.21163618 -12.89716572 10.33497319 -11 8 C-7.78548731 6.39274365 -4.56387464 6.94251815 -1 7 C-0.67 4.69 -0.34 2.38 0 0 Z M-5.75 12 C-7.64703032 15.03524851 -7.31226309 17.50265339 -7 21 C-6.01 22.485 -6.01 22.485 -5 24 C-3.35 23.34 -1.7 22.68 0 22 C0 18.7 0 15.4 0 12 C-3.72925442 10.57758676 -3.72925442 10.57758676 -5.75 12 Z " fill="#000000" transform="translate(291,466)"/>
<path d="M0 0 C1.56041016 -0.04253906 1.56041016 -0.04253906 3.15234375 -0.0859375 C6.0625 0.375 6.0625 0.375 8.42578125 1.8515625 C10.83495433 5.56594391 10.49892537 8.80136535 10.3125 13.125 C10.29445313 13.91777344 10.27640625 14.71054687 10.2578125 15.52734375 C10.21083082 17.47708348 10.13909044 19.42619878 10.0625 21.375 C7.12445004 21.45586376 4.18861925 21.5154283 1.25 21.5625 C0.41662109 21.58763672 -0.41675781 21.61277344 -1.27539062 21.63867188 C-2.47905273 21.65317383 -2.47905273 21.65317383 -3.70703125 21.66796875 C-4.81461792 21.69153442 -4.81461792 21.69153442 -5.94458008 21.71557617 C-8.5177376 21.27584142 -9.3732313 20.43124915 -10.9375 18.375 C-11.4375 15.4375 -11.4375 15.4375 -10.9375 12.375 C-8.72207303 9.65931532 -7.12488889 8.49810721 -3.6015625 8.1328125 C-1.36510718 8.12575744 0.83342068 8.20017025 3.0625 8.375 C2.4025 7.385 1.7425 6.395 1.0625 5.375 C-2.5675 5.705 -6.1975 6.035 -9.9375 6.375 C-8.4139733 0.28089319 -5.75948119 0.0711926 0 0 Z M-3.9375 13.375 C-3.6075 14.695 -3.2775 16.015 -2.9375 17.375 C-1.2875 17.045 0.3625 16.715 2.0625 16.375 C2.3925 15.055 2.7225 13.735 3.0625 12.375 C-0.83209074 12.16418149 -0.83209074 12.16418149 -3.9375 13.375 Z " fill="#000000" transform="translate(396.9375,472.625)"/>
<path d="M0 0 C1.56041016 -0.04253906 1.56041016 -0.04253906 3.15234375 -0.0859375 C6.0625 0.375 6.0625 0.375 8.42578125 1.8515625 C10.83495433 5.56594391 10.49892537 8.80136535 10.3125 13.125 C10.29445312 13.91777344 10.27640625 14.71054687 10.2578125 15.52734375 C10.21083082 17.47708348 10.13909044 19.42619878 10.0625 21.375 C7.12445004 21.45586376 4.18861925 21.5154283 1.25 21.5625 C0.41662109 21.58763672 -0.41675781 21.61277344 -1.27539062 21.63867188 C-2.47905273 21.65317383 -2.47905273 21.65317383 -3.70703125 21.66796875 C-4.81461792 21.69153442 -4.81461792 21.69153442 -5.94458008 21.71557617 C-8.5177376 21.27584142 -9.3732313 20.43124915 -10.9375 18.375 C-11.4375 15.4375 -11.4375 15.4375 -10.9375 12.375 C-8.72207303 9.65931532 -7.12488889 8.49810721 -3.6015625 8.1328125 C-1.36510718 8.12575744 0.83342068 8.20017025 3.0625 8.375 C2.4025 7.385 1.7425 6.395 1.0625 5.375 C-2.5675 5.705 -6.1975 6.035 -9.9375 6.375 C-8.4139733 0.28089319 -5.75948119 0.0711926 0 0 Z M-3.9375 13.375 C-3.6075 14.695 -3.2775 16.015 -2.9375 17.375 C-1.2875 17.045 0.3625 16.715 2.0625 16.375 C2.3925 15.055 2.7225 13.735 3.0625 12.375 C-0.83209074 12.16418149 -0.83209074 12.16418149 -3.9375 13.375 Z " fill="#F1592A" transform="translate(170.9375,472.625)"/>
<path d="M0 0 C4.1146875 -0.0928125 4.1146875 -0.0928125 8.3125 -0.1875 C9.60281128 -0.22846802 9.60281128 -0.22846802 10.91918945 -0.27026367 C11.60198975 -0.27775635 12.28479004 -0.28524902 12.98828125 -0.29296875 C14.03302612 -0.31653442 14.03302612 -0.31653442 15.09887695 -0.34057617 C17.64221868 0.11505009 18.49218374 0.92297729 20 3 C20.34057617 4.99291992 20.34057617 4.99291992 20.29296875 7.23046875 C20.28330078 8.03291016 20.27363281 8.83535156 20.26367188 9.66210938 C20.23853516 10.49548828 20.21339844 11.32886719 20.1875 12.1875 C20.16719727 13.4549707 20.16719727 13.4549707 20.14648438 14.74804688 C20.11115799 16.83230384 20.05735139 18.91623277 20 21 C17.69 21 15.38 21 13 21 C12.67 15.72 12.34 10.44 12 5 C10.68 5.33 9.36 5.66 8 6 C7.67 10.95 7.34 15.9 7 21 C4.69 21 2.38 21 0 21 C0 14.07 0 7.14 0 0 Z " fill="#F1592A" transform="translate(219,473)"/>
<path d="M0 0 C2.31 0 4.62 0 7 0 C7.33 5.28 7.66 10.56 8 16 C9.32 15.67 10.64 15.34 12 15 C12.33 10.05 12.66 5.1 13 0 C15.31 0 17.62 0 20 0 C20 6.93 20 13.86 20 21 C17.256875 21.0825 14.51375 21.165 11.6875 21.25 C10.82729248 21.28641602 9.96708496 21.32283203 9.08081055 21.36035156 C3.6090776 21.44040996 3.6090776 21.44040996 0.96875 19.53125 C-0.47508532 15.75864803 -0.31683023 12.24928869 -0.1875 8.25 C-0.17396484 7.45722656 -0.16042969 6.66445313 -0.14648438 5.84765625 C-0.11125223 3.89814436 -0.05744821 1.94898374 0 0 Z " fill="#F1592A" transform="translate(190,473)"/>
<path d="M0 0 C1.43859375 -0.00773437 1.43859375 -0.00773437 2.90625 -0.015625 C5.5 0.25 5.5 0.25 8.5 2.25 C9.1875 4.375 9.1875 4.375 9.5 6.25 C2.07142857 6.39285714 2.07142857 6.39285714 -1.5 5.25 C-1.83 5.91 -2.16 6.57 -2.5 7.25 C-0.64375 7.4046875 -0.64375 7.4046875 1.25 7.5625 C4.75579449 8.02248013 7.15048433 8.4110019 9.5 11.25 C10.09152429 14.72520521 9.89437743 16.53636465 8.1875 19.625 C3.94097075 22.19266885 -0.66442783 22.03933604 -5.5 21.25 C-7.84375 19.97265625 -7.84375 19.97265625 -9.5 18.25 C-9.5 16.93 -9.5 15.61 -9.5 14.25 C-6.625 14.125 -6.625 14.125 -3.5 14.25 C-2.84 14.91 -2.18 15.57 -1.5 16.25 C0.60820797 15.9314823 0.60820797 15.9314823 2.5 15.25 C1.80132812 14.99605469 1.10265625 14.74210937 0.3828125 14.48046875 C-0.98230469 13.96419922 -0.98230469 13.96419922 -2.375 13.4375 C-3.27992188 13.10105469 -4.18484375 12.76460938 -5.1171875 12.41796875 C-7.5 11.25 -7.5 11.25 -9.5 8.25 C-9.3125 5.1875 -9.3125 5.1875 -8.5 2.25 C-5.14802157 0.01534771 -3.92208754 -0.02108649 0 0 Z " fill="#F1592A" transform="translate(143.5,472.75)"/>
<path d="M0 0 C1.98 0 3.96 0 6 0 C6 1.65 6 3.3 6 5 C7.32 5 8.64 5 10 5 C10 6.32 10 7.64 10 9 C8.68 9 7.36 9 6 9 C6.33 13.29 6.66 17.58 7 22 C7.99 22 8.98 22 10 22 C10 23.32 10 24.64 10 26 C3.9453125 26.1953125 3.9453125 26.1953125 2 26 C0 24 0 24 -0.1953125 20.5234375 C-0.18201493 19.14049032 -0.15816232 17.75761346 -0.125 16.375 C-0.11597656 15.66859375 -0.10695313 14.9621875 -0.09765625 14.234375 C-0.07407603 12.48943902 -0.03820461 10.74467705 0 9 C-0.99 9 -1.98 9 -3 9 C-3 7.68 -3 6.36 -3 5 C-2.01 5 -1.02 5 0 5 C0 3.35 0 1.7 0 0 Z " fill="#000000" transform="translate(370,468)"/>
<path d="M0 0 C2.31 0 4.62 0 7 0 C7 9.24 7 18.48 7 28 C4.69 28 2.38 28 0 28 C0 18.76 0 9.52 0 0 Z " fill="#000000" transform="translate(416,466)"/>
<path d="M0 0 C2.31 0 4.62 0 7 0 C7 6.93 7 13.86 7 21 C4.69 21 2.38 21 0 21 C0 14.07 0 7.14 0 0 Z " fill="#000000" transform="translate(449,473)"/>
<path d="M0 0 C2.31 0 4.62 0 7 0 C7 6.93 7 13.86 7 21 C4.69 21 2.38 21 0 21 C0 14.07 0 7.14 0 0 Z " fill="#000000" transform="translate(352,473)"/>
<path d="M0 0 C2.31 0 4.62 0 7 0 C7 6.93 7 13.86 7 21 C4.69 21 2.38 21 0 21 C0 14.07 0 7.14 0 0 Z " fill="#000000" transform="translate(307,473)"/>
<path d="M0 0 C2.31 0 4.62 0 7 0 C7 1.98 7 3.96 7 6 C4.69 6 2.38 6 0 6 C0 4.02 0 2.04 0 0 Z " fill="#000000" transform="translate(433,488)"/>
<path d="M0 0 C2.31 0 4.62 0 7 0 C7 1.65 7 3.3 7 5 C4.69 5 2.38 5 0 5 C0 3.35 0 1.7 0 0 Z " fill="#000000" transform="translate(449,465)"/>
<path d="M0 0 C2.31 0 4.62 0 7 0 C7 1.65 7 3.3 7 5 C4.69 5 2.38 5 0 5 C0 3.35 0 1.7 0 0 Z " fill="#000000" transform="translate(352,465)"/>
<path d="M0 0 C2.31 0 4.62 0 7 0 C7 1.65 7 3.3 7 5 C4.69 5 2.38 5 0 5 C0 3.35 0 1.7 0 0 Z " fill="#000000" transform="translate(307,465)"/>
</svg>
